<svg xmlns="http://www.w3.org/2000/svg" xmlns:xlink="http://www.w3.org/1999/xlink" viewBox="0 0 2850 1800" xmlns:v="https://vecta.io/nano"><style><![CDATA[.B{opacity:.93}.C{fill:#333a61}.D{fill:#090c2f}.E{fill:#080a23}.F{opacity:.6}.G{opacity:.4}.H{fill:#5d4e7d}.I{fill:#9377d0}.J{fill:#272348}]]></style><linearGradient id="A" gradientUnits="userSpaceOnUse" x1="1425" y1="31.477" x2="1425" y2="1380.346"><stop offset="0" stop-color="#251d4c"/><stop offset=".277" stop-color="#563875"/><stop offset=".905" stop-color="#d17bdb"/><stop offset="1" stop-color="#e485eb"/></linearGradient><path fill="url(#A)" d="M0 0h2850v1800H0z"/><g fill="#fff" class="G"><path d="M2715.428 977.942l-17.395-14.436-18.181 13.65 14.436-17.395-13.65-18.181 18.019 13.811 17.557-13.025-13.812 16.771z" class="G"/><use xlink:href="#C" class="F"/><path d="M2688.812 609.119l-10.517-8.728-10.991 8.253 8.727-10.517-8.252-10.992 10.894 8.35 10.615-7.875-8.351 10.14zm-516.653 312.452l-7.419-6.157-7.755 5.822 6.157-7.42-5.822-7.755 7.686 5.892 7.489-5.556-5.891 7.153z" class="F"/><use xlink:href="#C" x="182.786" y="379.485" class="F"/><path d="M2336.907 395.743l-13.369-11.095-13.973 10.491 11.095-13.369-10.491-13.974 13.849 10.616 13.494-10.011-10.616 12.889z" class="G"/><use xlink:href="#D" class="B"/><path d="M2630.434 752.959l-6.277-5.21-6.561 4.926 5.209-6.277-4.926-6.561 6.503 4.984 6.336-4.701-4.984 6.053z" class="B"/><use xlink:href="#E" class="B"/><use xlink:href="#E" x="191.626" y="415.072" class="B"/><use xlink:href="#F" class="B"/><path d="M2603.828 203.671l-8.441-7.005-8.822 6.624 7.005-8.441-6.623-8.822 8.743 6.702 8.519-6.321-6.701 8.138z" class="B"/><path d="M2050.04 308.312l-17.394-14.436-18.181 13.65 14.435-17.395-13.649-18.181 18.019 13.811 17.556-13.025-13.811 16.771z" class="G"/><path d="M1024.694 954.091l-13.369-11.095-13.974 10.491 11.095-13.37-10.49-13.973 13.849 10.615 13.493-10.011-10.615 12.89zm468.731-802.602l-10.517-8.728-10.992 8.253 8.728-10.517-8.253-10.992 10.895 8.35 10.614-7.875-8.35 10.14zm199.781 436.417l-10.517-8.728-10.992 8.252 8.728-10.516-8.253-10.992 10.895 8.35 10.614-7.875-8.35 10.139zm-207.827-330.35l11.095-13.37-10.491-13.973 13.369 11.095 13.974-10.491-10.616 13.849 10.012 13.494-12.89-10.616zm450.522 566.78l-13.37-11.095-13.973 10.491 11.095-13.369-10.491-13.974 13.849 10.616 13.494-10.011-10.615 12.889z" class="F"/><path d="M1198.365 705.579l-13.37-11.095-13.973 10.49 11.095-13.369-10.491-13.973 13.849 10.615 13.494-10.011-10.615 12.889z" class="G"/><path d="M1150.613 184.708l-3.272-2.716-3.42 2.568 2.715-3.272-2.567-3.42 3.389 2.598 3.303-2.451-2.598 3.155zm689.983 10.344l-6.278-5.21-6.561 4.926 5.21-6.277-4.926-6.561 6.503 4.984 6.336-4.701-4.985 6.052z" class="B"/><use xlink:href="#D" x="-727.613" y="-495.682" class="B"/><path d="M1859.511 509.401l-3.272-2.715-3.42 2.568 2.715-3.272-2.567-3.42 3.389 2.598 3.303-2.45-2.598 3.154zm392.653-226.699l-4.895-4.062-5.116 3.841 4.062-4.895-3.841-5.116 5.071 3.887 4.94-3.666-3.887 4.719zm30.276-147.661l-8.44-7.005-8.822 6.624 7.005-8.441-6.624-8.822 8.744 6.702 8.519-6.321-6.702 8.138z" class="B"/><path d="M2188.793 1464.729l1.265 13.607 13.608 1.938-13.608 1.265-1.937 13.607-1.799-13.607-13.074-1.938 13.074-1.265z" class="F"/><path d="M1879.755 1148.516l-1.608-17.299-17.299-2.462 17.299-1.609 2.462-17.299 2.287 17.299 16.62 2.463-16.62 1.608z" class="G"/><path d="M2331.783 1404.298l.755 8.122 8.122 1.157-8.122.755-1.157 8.122-1.073-8.122-7.804-1.156 7.804-.756zm-187.866-260.997l1.016 10.921 10.921 1.555-10.921 1.015-1.555 10.922-1.444-10.922-10.493-1.554 10.493-1.016z" class="B"/><use xlink:href="#F" x="-840.75" y="65.761" class="B"/><path d="M1472.096 741.739l-8.44-7.005-8.823 6.623 7.005-8.44-6.623-8.823 8.743 6.702 8.52-6.32-6.702 8.138z" class="B"/><path d="M901.378 655.545l14.435-17.395-13.649-18.181 17.395 14.436 18.181-13.65-13.812 18.019 13.026 17.557-16.771-13.812z" class="G"/><path d="M384.763 322.645l-13.37-11.095-13.973 10.49 11.095-13.369-10.491-13.973 13.849 10.615 13.494-10.011-10.616 12.889zm525.575-35.137l-10.517-8.728-10.992 8.253 8.728-10.517-8.252-10.992 10.894 8.35 10.614-7.875-8.35 10.14zM393.685 599.96l-7.419-6.157-7.755 5.822 6.157-7.42-5.822-7.755 7.686 5.891 7.488-5.555-5.891 7.153z" class="F"/><use xlink:href="#G" class="F"/><path d="M558.433 74.132l-13.369-11.095-13.974 10.491 11.095-13.369-10.49-13.974 13.849 10.616 13.493-10.011-10.615 12.889z" class="G"/><use xlink:href="#E" x="-1716.249" y="-495.559" class="B"/><path d="M851.96 431.348l-6.278-5.21-6.56 4.926 5.209-6.277-4.926-6.561 6.503 4.984 6.336-4.701-4.985 6.053zm-346.659 63.327l-3.272-2.716-3.42 2.568 2.715-3.272-2.567-3.42 3.389 2.598 3.303-2.45-2.598 3.155zm191.626 415.072l-3.272-2.716-3.42 2.568 2.715-3.272-2.568-3.42 3.39 2.598 3.303-2.45-2.598 3.154zm15.058-373.778l-4.895-4.062-5.117 3.841 4.063-4.895-3.841-5.116 5.07 3.886 4.941-3.665-3.887 4.719zm457.369-52.909l-8.441-7.005-8.822 6.624 7.005-8.441-6.623-8.822 8.743 6.702 8.519-6.321-6.702 8.138z" class="B"/><path d="M1325.372 37.071l-14.435 17.395 13.649 18.181-17.394-14.435-18.181 13.649 13.811-18.019-13.025-17.557 16.77 13.812z" class="G"/><path d="M1346.13 905.36l11.094-13.369-10.49-13.974 13.369 11.095 13.973-10.49-10.615 13.849 10.011 13.493-12.889-10.615zM109.224 297.072l-8.728 10.517 8.252 10.992-10.516-8.728-10.992 8.253 8.35-10.894-7.875-10.615 10.139 8.35zM730.99 992.336l-8.727 10.517 8.252 10.992-10.517-8.728-10.991 8.253 8.35-10.894-7.875-10.615 10.139 8.35z" class="F"/><use xlink:href="#H" class="F"/><use xlink:href="#G" x="-410.122" y="-199.404" class="F"/><path d="M1296.753 397.865l-13.369-11.095-13.973 10.49 11.094-13.369-10.49-13.973 13.849 10.615 13.493-10.011-10.615 12.889z" class="G"/><path d="M1305.846 644.459l-3.272-2.715-3.42 2.567 2.716-3.272-2.568-3.42 3.39 2.598 3.302-2.45-2.598 3.155zm248.94-269.558l-5.209 6.278 4.926 6.561-6.278-5.21-6.561 4.926 4.985-6.503-4.701-6.335 6.052 4.984z" class="B"/><use xlink:href="#I" class="B"/><path d="M2566.096 467.738l-8.44-7.004-8.823 6.623 7.005-8.44-6.623-8.822 8.743 6.701 8.52-6.32-6.702 8.138z" class="B"/><use xlink:href="#H" x="1094" y="-274" class="F"/><use xlink:href="#I" x="1094" y="-274" class="B"/><use xlink:href="#I" x="1260" y="-489" class="B"/><use xlink:href="#I" x="530" y="-513" class="B"/><use xlink:href="#I" x="661" y="-117" class="B"/><use xlink:href="#I" x="293" y="91" class="B"/><use xlink:href="#I" x="628" y="177" class="B"/><use xlink:href="#I" x="1186" y="666" class="B"/><use xlink:href="#I" x="52" y="455" class="B"/><path d="M847.869 958.495l-4.234.394-.603 4.234-.393-4.234-4.234-.603 4.234-.559.603-4.068.393 4.068zM762.69 122.091l-4.895-4.062-5.117 3.841 4.063-4.895-3.842-5.116 5.071 3.887 4.941-3.666-3.887 4.719zM304.776 38.057l-7.005 8.44 6.623 8.822-8.44-7.004-8.822 6.623 6.701-8.744-6.32-8.519 8.138 6.702z" class="B"/><path d="M473.639 1265.974l10.517 8.727 10.991-8.252-8.727 10.517 8.252 10.992-10.894-8.351-10.614 7.875 8.35-10.139z" class="F"/><path d="M132.062 733.122l11.095-13.369-10.491-13.973 13.369 11.095 13.974-10.491-10.616 13.849 10.011 13.494-12.889-10.616z" class="G"/><path d="M532.017 1122.134l6.277 5.209 6.562-4.926-5.21 6.278 4.926 6.561-6.503-4.985-6.336 4.701 4.985-6.052zM322.54 916.226l-7.004 8.44 6.623 8.822-8.441-7.004-8.822 6.623 6.702-8.744-6.32-8.519 8.137 6.702zM1735.235 374.73l-4.895-4.062-5.117 3.841 4.063-4.895-3.842-5.117 5.071 3.887 4.941-3.665-3.887 4.719zM99.771 582.334l-10.922 1.015-1.554 10.921-1.016-10.921-10.921-1.555 10.921-1.444 1.555-10.493 1.015 10.493z" class="B"/></g><defs><path id="B" d="M0 0h2029.551v1536.955H0z"/><path id="C" d="M2163.237 644.255l-13.37-11.094-13.973 10.49 11.095-13.369-10.491-13.973 13.849 10.615 13.494-10.011-10.615 12.889z"/><path id="D" d="M2346 642.338l-3.272-2.716-3.42 2.568 2.716-3.272-2.568-3.42 3.39 2.598 3.302-2.45-2.598 3.154z"/><path id="E" d="M2283.775 816.286l-3.272-2.716-3.42 2.568 2.715-3.272-2.567-3.42 3.389 2.598 3.303-2.45-2.598 3.154z"/><path id="F" d="M2490.459 857.58l-4.895-4.062-5.116 3.841 4.062-4.895-3.841-5.116 5.071 3.886 4.94-3.665-3.887 4.719z"/><path id="G" d="M567.549 702.129l-13.37-11.095-13.973 10.491 11.095-13.369-10.491-13.974 13.849 10.616 13.494-10.011-10.616 12.889z"/><path id="H" d="M1617.895 702.776l-11.095 13.369 10.49 13.973-13.369-11.095-13.973 10.491 10.615-13.849-10.011-13.494 12.889 10.616z"/><path id="I" d="M1506.391 597.11l-2.716 3.272 2.568 3.42-3.272-2.716-3.42 2.568 2.598-3.39-2.451-3.302 3.155 2.598z"/></defs><clipPath id="J"><use xlink:href="#B"/></clipPath><g clip-path="url(#J)"><g fill="#e5edd4"><circle opacity=".15" cx="807.872" cy="329.802" r="1069.456"/><circle opacity=".15" cx="807.872" cy="329.802" r="881.215"/></g><circle fill="#fff" cx="807.872" cy="329.802" r="724.21"/><path fill="#efeff0" d="M888.829 841.607c-399.97 0-724.21-324.24-724.21-724.21 0-50.909 5.264-100.587 15.257-148.53-61.202 106.257-96.214 229.507-96.214 360.935 0 399.97 324.24 724.21 724.21 724.21 349.061 0 640.433-246.957 708.953-575.681-125.052 217.112-359.453 363.276-627.996 363.276z"/><g fill="#f6f6f6"><path d="M1132.745 280.233c-32.007-24.029-76.661-29.315-114.058-15.054-33.673 12.841-60.68 39.688-94.609 51.836-18.975 6.794-40.391 9.193-56.722 20.384-3.315 2.272-6.053 5.29-8.076 8.762h0c-1.614 2.769-2.76 5.793-3.315 8.949-11.675 66.367 36.648 136.155 101.608 155.481 66.578 19.808 142.24-9.037 186.462-62.604 14.858-17.998 26.808-38.961 31.054-61.91 7.282-39.353-10.337-81.814-42.344-105.844zM939.226-134.148c17.309 17.333 43.906 24.405 67.799 19.006 21.514-4.861 40.204-18.786 61.813-23.206 12.085-2.472 25.268-2.069 36.132-7.434 2.206-1.089 4.126-2.68 5.653-4.609h0c1.218-1.538 2.174-3.271 2.784-5.135 12.825-39.198-10.403-85.668-48.085-103.007-38.62-17.771-86.962-6.853-118.397 21.768-10.562 9.616-19.619 21.282-24.18 34.817-7.823 23.215-.829 50.467 16.481 67.8zm312.217 259.228c-10.862 1.632-17.971 13.103-18.677 24.064-1.228 19.058 14.326 37.669 33.299 39.843s38.334-12.436 41.449-31.277-10.514-38.905-29.177-42.953c-6.17-1.338-14.056-.212-16.488 5.614M261.69 35.005c-8.281 1.244-13.7 9.989-14.239 18.346-.936 14.529 10.922 28.717 25.386 30.375s29.225-9.48 31.599-23.844-8.016-29.66-22.244-32.746c-4.704-1.02-10.716-.162-12.57 4.28"/><path d="M1315.988 575.418c-14.279 6.446-27.299 17.192-33.033 31.771s-2.564 33.161 9.917 42.63 33.738 5.737 39.824-8.699c5.394-12.793-.929-30.086 8.988-39.802 2.212-2.167 5.089-3.718 6.741-6.336 3.697-5.859-1.033-14.08-7.518-16.518s-13.712-.848-20.433.833M580.521-249.025c-31.491 14.216-60.206 37.915-72.85 70.069s-5.654 73.133 21.871 94.016 74.406 12.652 87.829-19.185c11.895-28.213-2.05-66.353 19.822-87.779 4.878-4.779 11.223-8.199 14.867-13.974 8.154-12.922-2.278-31.052-16.58-36.43s-30.24-1.87-45.063 1.837m30.465 410.085c-9.325-21.85-23.141-44.974-46.145-50.908-14.276-3.683-29.312.122-43.466 4.249-76.785 22.387-143.645 31.307-222.152 46.595-57.329 11.164-53.029 103.977-40.853 151.624 5.218 20.421 12.576 40.766 25.748 57.22 17.568 21.944 44.496 35.255 72.264 39.626s56.349.367 83.251-7.783c74.094-22.447 137.622-77.608 170.241-147.82 7.177-15.447 12.998-32.018 12.626-49.046-.332-15.174-5.557-29.798-11.514-43.757zm322.15-72.639c-.893-8.539-8.06-15.075-15.542-19.285-16.639-9.361-37.321-11.214-55.358-4.958l-14.234 3.47c-10.895-1.144-22.592-.008-31.497 6.372s-13.832 19.096-8.795 28.824c4.548 8.784 15.005 12.399 24.485 15.222 17.337 5.162 35.122 10.338 53.177 9.231s36.735-9.77 44.877-25.923c2.018-4.006 3.353-8.493 2.887-12.953zm18.031 865.033c-11.343-2.466-17.866-14.414-20.947-25.606-2.821-10.249-4.027-20.94-3.559-31.56.427-9.707 2.745-20.223 10.331-26.294 8.361-6.691 20.338-5.887 30.85-3.843 3.596.699 7.307 1.565 10.188 3.828 5.374 4.22 6.302 11.817 8.947 18.118 2.895 6.898 8.133 12.605 11.091 19.477 4.85 11.268 2.666 25.231-5.395 34.48s-21.594 13.32-33.42 10.054"/></g></g><path d="M2381.199 391.683c-175.193 27.31-353.746 23.004-530.665 11.455-153.189-10-308.622-25.237-458.977 5.861-126.953 26.258-244.654 84.444-363.96 135.308C701.344 683.402 353.151 770.38.069 801.485v113.699c307.324 29.23 618.153-68.043 905.896-187.32 150.19-62.258 299.819-131.402 460.165-157.815 98.565-16.236 199.051-15.909 298.893-13.035 247.893 7.137 496.996 29.66 743.114-.91 151.503-18.818 300.441-57.967 441.863-115.663V211.349c-137.278 98.284-301.932 154.322-468.801 180.334zM1844.473 0c-151.652 63.71-304.339 124.028-463.583 164.026-214.871 53.97-440.71 70.716-644.245 158.425-110.075 47.435-210.674 114.484-318.869 166.094C285.331 551.723 143.598 590.853.069 622.841v6.032c125.516 10.588 253.624-19.492 372.73-63.568 141.075-52.206 274.49-123.795 416.076-174.589 352.401-126.426 736.183-118.367 1107.317-166.569C2193.041 185.593 2485.1 110.076 2763.613 0h-919.14zm261.308 808.341c-257.252-46.922-517.942-109.115-777.271-75.643-135.559 17.497-266.258 60.735-398.528 95.287C626.936 907.147 313.397 940.971.069 943.051v71.976c266.39 25.996 535.426 41.355 796.074-14.927 178.17-38.473 424.448-65.233 605.555-44.818 356.152 40.147 971.855 465.123 1448.303 345.348V804.208c-236.818 79.151-497.49 49.136-744.22 4.133zM688.531 0L185.085 278.087.068 377.259V533.89C296.19 405.688 554.895 186.503 853.212 55.574 898.844 35.546 945.344 17.618 991.971 0h-303.44z" opacity=".04" fill="#fff"/><path d="M1923.972 1502.903l-260.485-284.594-287.599 265.493z" class="H"/><path fill="#493c63" d="M1976.477 1134.89l-50.646-37.714-49.691 45.256h-22.934l-132.827 125.712-142.383 66.628-37.268 119.426 488.154-20.114 24.32-235.101z"/><path d="M1925.831 1097.176l-35.381 78.32-54.495 21.34-103.032 136.282-88.109 31.538 10.033 48.72-13.463 40.822h-100.656l37.268-119.426 142.383-66.628 132.827-125.712h22.934z" class="I"/><path d="M2155.209 1081.504l-130.387 125.323-51.24-31.331-98.151 93.993-106.811 32.28-113.773 152.429h950.725z" class="H"/><path d="M2155.209 1081.504v93.992l-39.511 48.902 14.511 90.449-29.132 177.917-141.335-18.581 22.279-183.094 55.685-29.316-12.884-54.946zm-181.627 93.992l-27.634 83.831-54.091 28.142-4.161 28.421-94.314 39.229-23.722 85.141-14.689 13.938h-100.124l113.773-152.429 106.811-32.28z" class="I"/><path fill="#493c63" d="M2320.82 1404.087l-287.514-81.124-44.536-24.063-12.724 11.508-84.3-64.866-327.655 310.891h835.348z"/><path d="M1891.746 1245.542l-13.567 94.129-49.717 31.144 31.642 24.916-109.176 78.641-21.307 82.061h-165.53zm97.024 53.358l-57.649 50.59 28.825-3.903-4.721 73.999zm17.478 120.686l-108.685 55.887-10.954 62.707 37.334-54.994zm427.547-251.872l-77.137 43.148-24.271 39.216-19.16-5.849-49.735 50.043-55.628-23.458-51.014 69.581-68.972 59.034-126.259 99.094h486.089l29.538-252.054z" class="I"/><path d="M2313.227 1244.229l2.963 32.112-6.285 74.5 22.482-100.763zm120.568-76.515l-15.816 38.83 42.607 57.025-30.38 71.343 8.747 45.642-32.828 31.177 41.583 86.792 419.292-3.622-150.211-133.887-219.865-153.392-11.859 15.644z" class="H"/><path d="M2496.924 1207.622l-11.859 15.644 71.858 53.618 42.066 1.945z" class="I"/><path d="M2207.864 1270.814l15.23 62.221 40.398-38.763z" class="H"/><path fill="#b4afe5" d="M0 1438.964h2847.808V1800H0z"/><path opacity=".16" d="M1627.236 1800h125.571c-53.875-40.164-116.841-57.662-179.807-77.036-56-18-114-3-170 15-16 5-31 13-47 20-23.048 9.878-42.776 24.281-59.364 42.036h129.238c16.823-14.881 36.735-25.041 59.126-26.036 45.228-2.467 110.058-8.98 142.236 26.036zm464.764-9.036c-11-3-21-9-31-12-68-24-134-45-198-78-70-37-147-46-224-66-33-9-65-15-98-17-84-6-172-17-250 22-5 2-13 7-13 12-1 23 0 50-22 63-39 24-75 48-120 60-5 2-10 6-15 8-18.212 6.45-36.712 11.891-55.281 17.036h75.774c19.45-6.719 38.586-14.575 57.507-24.036 55-26 103-57 155-92 37-25 78-29 120-26 35 3 69 9 103 18 30 8 57 17 87 26 25 7 49 19 72 31 17 9 34 15 51 22 9 5 17 11 26 15 30.475 13.714 62.691 19.307 93.995 30.036h216.513c-10.512-2.807-21.014-5.814-31.508-9.036zm738-303c-21 13-42 17-64 26-22 10-45 14-70 20-6 1-13-1-19 0-79 15-154 16-232 22-36 3-72 0-108 4-44 3-87-5-131-4-9 1-17-3-26-2-29 0-56-4-86-8-10-2-20 0-30-1-53-7-104-13-157-18-18-2-35-6-53-8-126-9-251-10-377-6l-86 4c-89 8-179 8-262 44-5 2-9 8-11 14-6 25 24 32 32 50 5 10 3 24 2 36h-4v4c-5 1-10-1-15 0-102 18-194 45-295 59-80 11-156 14-236 25L210.391 1800h381.067L920 1753.964c68-11 129-30 198-45 10-3 21-7 29-11 23-12 43-25 64-40v-4h4c1-6 1-13 0-19h-4v-4c-3-3-4-5-3-7h-4c-1-2-1-6 0-7 7-6 2-10 4-11 14-7 25-21 41-19v-4c3-1 7 1 11 0 3-1 5-3 8-4 4-1 8 1 11 0 17-6 34-7 52-7 4 0 7-4 11-4h225c6 1 12 3 18 4 6 0 13-1 19 0 14 3 27 3 41 4 13 1 25 5 38 7 7 1 15-1 22 0 14 3 27 3 41 5 44 5 87 17 131 20 26 1 50 6 75 8 7 0 15-1 22 0 34 5 67 11 101 14 33 2 65 6 97 15 112 28 221 27 333 24 6-1 13-3 19-4 32-1 65 1 97 0 9-1 17-4 26-3 70.584 1.988 133.264-27.645 200.808-46.66v-139.122c-5.866 4.016-11.836 7.9-17.808 11.782zm-2030 124c-7 17 14 34 31 36 58 9 114 3 172-11 5-1 10 0 15 0 23-1 37-15 52-31 9-11 11-26 4-37-8-14-10-30-1-41 15-20 40-22 63-26 7-2 14-1 21-3 20-8 40-11 61-15 12-2 24-2 36-4 9-1 18-4 28-5 41-4 81-10 121-14 78-6 154-17 233-8 30 3 59 8 89 11l236 21c138.667 10.785 284.451 6.721 413.13-46H1089.21c-47.799 11.103-94.64 24.407-141.21 42-62 24-123 67-148 131z" fill="#fff"/><path fill="#b4afe5" d="M2374.13 1438.964c-128.679 52.721-274.463 56.785-413.13 46l-236-21c-30-3-59-8-89-11-79-9-155 2-233 8-40 4-80 10-121 14-10 1-19 4-28 5-12 2-24 2-36 4-21 4-41 7-61 15-7 2-14 1-21 3-23 4-48 6-63 26-9 11-7 27 1 41 7 11 5 26-4 37-15 16-29 30-52 31-5 0-10-1-15 0-58 14-114 20-172 11-17-2-38-19-31-36 25-64 86-107 148-131 46.571-17.593 93.411-30.897 141.21-42H0V1800h210.391L602 1748.964c80-11 156-14 236-25 101-14 193-41 295-59 5-1 10 1 15 0v-4h4c1-12 3-26-2-36-8-18-38-25-32-50 2-6 6-12 11-14 83-36 173-36 262-44 29-2 58-3 86-4 126-4 251-3 377 6 18 2 35 6 53 8 53 5 104 11 157 18 10 1 20-1 30 1 30 4 57 8 86 8 9-1 17 3 26 2 44-1 87 7 131 4 36-4 72-1 108-4 78-6 153-7 232-22 6-1 13 1 19 0 25-6 48-10 70-20 22-9 43-13 64-26l17.808-11.782v-37.218H2374.13z"/><path opacity=".42" d="M619.572 1467.877h84.736m113.436 0h320.893m145.723 0h113.082m169.336 0H1763m211.186 0h123.428m80.163 0h38.587m-1962.311 0h38.587m87.635 0h138.622m-43.7 37.868h127.141m257.774 0h29.655m237.958 0h83.982m167.939 0h35.591m302.115 0h140.668m177.85 0h34.664m-1479.728 37.869h28.766m56.981 0h93.806m213.013 0h39.353m315.446 0h132.824m127.481 0h27.561m197.798 0h68.369m-1272.632 37.869h61.919m774.964 0h85.9m174.904 0h35.777m-442.64 0h35.777m-411.551 0h281.563m-466.667 37.869h200.733m60.072 0h66.855m525.784 0h16.281m-445.197 0h308.477m-591.161 37.869h324.823m54.158 0h67.828m121.297 0h23.055M476.578 1743.62h84.737m113.435 0h320.893m145.724 0h113.081m169.336 0h196.222m211.187 0h123.427m80.163 0h38.588m-1962.311 0h38.587m87.634 0h138.623m-43.701 37.869h127.142m257.774 0h29.654m237.958 0h83.983m167.938 0h35.592m302.115 0h140.667m177.85 0h34.665m46.645-196.973h132.825m127.481 0h27.561m197.797 0h68.37m-269.84 63.808h85.901m174.903 0h35.777m-442.64 0h35.777m-1011.651 55.341h85.9m174.904 0h35.776m-442.639 0h35.776m710.383-55.341h281.563m-466.667 37.869h200.733m60.072 0h66.855m525.784 0h16.281m-445.197 0h308.477" fill="none" stroke="#fff" stroke-width="4" stroke-linecap="round" stroke-miterlimit="10"/><path d="M184.66 1397.783l.244 402.217h543.391l1.941-3.046c18.643-32.554 12.935-78.979 42.24-102.401 12.213-9.761 28.169-13.167 43.491-16.284l168.097-34.199 111.146-157.573 163.551-28.701 178.025-109.617 8.503-23.083c0 .002-840.42 48.458-1260.629 72.687z" class="J"/><g class="E"><path d="M754.632 1584.516l-47.543 215.521h-101.46l9.496-82.334-135.79 26.559-17.092 55.775-277.339-.037v-107.724l130.254 65.924 32.895-96.053zm461.251-205.154l1.445 69.055-15.156 19.31 56.589-9.931 66.577-40.994 5.603-52.147-115.058 14.707z"/><path d="M1342.619 1344.759l-5.606 52.203-13.875 14.205 2.2 5.636 111.448-68.623 8.503-23.082zm-140.447 62.009v21.109l-41.253 22.815-7.006 25.504-58.703 10.302-36.648 52.531-127.176 8.966 20.45-34.356 44.99-23.615 11.386-69.343zm-313.001 195.009l7.377-73.767-96.872 17.026.75 65.615-72.61 26.624-100.847 162.762 101.326-.037 30.985-119.966 224.783-35.963 39.942-55.929z"/></g><linearGradient id="K" gradientUnits="userSpaceOnUse" x1="0" y1="1550.318" x2="1445.289" y2="1550.318"><stop offset="0" stop-color="#000020"/><stop offset=".467" stop-color="#2e315e"/><stop offset=".818" stop-color="#4c5086"/><stop offset="1" stop-color="#575c95"/></linearGradient><path fill="url(#K)" d="M0 1321.838l942.142-21.239 81.863 18.794 323.662-11.81 89.679 4.735 7.943 12.78-102.67 19.661-11.679 19.897-115.057 14.706-13.711 27.406-193.96 13.913-42.556 31.099-144.234 25.601-66.79 107.135-406.579 77.631-32.895 96.053-104.789 41.837L0 1800z"/><path d="M897.239 1521.099l59.701-24.203 8.716-45.116-335.9 57.306 159.995-10.745-14.423 10.682 23.981 3.829.367 32.184 96.872-17.026zm12.199-119.578c-3.672-5.764-11.434-6.961-18.238-7.601l-36.473-3.43c-12.051-1.133-27.812-6.374-26.806-18.437.335-4.012 2.721-7.654 2.949-11.674.563-9.954-11.223-15.474-20.973-17.557-37.231-7.955-75.747-6.491-113.789-4.988L.069 1356.392v251.44c74.668-5.945 303.21-30.939 371.324-45.283 6.988-1.472 498.982-113.416 525.314-133.512 8.875-6.773 18.729-18.101 12.731-27.516zm162.17 138.265l-195.309 32.564c-18.364 5.35-50.063 10.442-68.426 15.792-2.674.779-77.523 86.406-110.369 129.561 36.467-12.754 72.934-25.723 109.4-40.739 15-6 33-6 45-16 8-8 13-27 19-29 55.6-25.947 117.211-33.009 176.875-49.023l15.553-20.392c.001 0 7.545-10.597 8.276-22.763z" class="E"/><path d="M851.904 1660.964c-12 10-30 10-45 16-36.467 15.016-72.934 27.985-109.4 40.739l-7.479 10.123c50.246-19.549 102.419-34.139 155.517-43.489 7.579-1.335 15.323-2.61 22.149-6.164 10.056-5.235 17.354-15.461 19.035-26.673.389-2.594.573-5.421 2.282-7.411 1.693-1.971 4.438-2.593 6.986-3.103l115.86-23.212c3.7-.741 7.504-1.524 10.651-3.606 1.786-1.182 14.489-17.288 25.275-31.227-59.665 16.015-121.275 23.076-176.875 49.023-6.001 2-11.001 21-19.001 29z" class="J"/><linearGradient id="L" gradientUnits="userSpaceOnUse" x1="749.249" y1="1562.549" x2="1012.984" y2="1562.549"><stop offset="0" stop-color="#000020"/><stop offset=".467" stop-color="#2e315e"/><stop offset=".818" stop-color="#4c5086"/><stop offset="1" stop-color="#575c95"/></linearGradient><path fill="url(#L)" d="M851.761 1542.722h0c-14.563 14.39-29.326 31.03-43.889 45.42 75.946-2.866 150.93-17.431 226.566-24.859 8.016-.787 16.238-1.548 23.493-5.045s13.452-10.401 13.675-18.452c-73.214-4.582-146.777-3.6-219.845 2.936z"/><path d="M870.695 838.144c-7.762-22.409-32.109-36.275-55.82-36.703 7.617-30.575 15.488-61.591 14.658-93.089-4.731-179.642-143.773-232.615-232.447-245.574-91.345-13.349-188.579 28.065-242.246 103.178-17.967-15.36-49.874-8.602-60.07 12.724-53.065-15.145-113.678-.075-153.472 38.157S84.019 715.03 97.027 768.659c8.99 37.063 35.873 73.16 73.61 78.678-13.691 19.121-14.317 44.785-9.92 67.888 4.293 22.555 13.579 45.269 31.499 59.623s45.895 17.702 63.524 2.993c48.091 46.337 133.371 45.987 181.08-.742 3.42 12.521 15.245 22.271 28.188 23.24s26.089-6.909 31.336-18.782c13.753 28.755 41.12 49.759 71.46 59.529s63.376 9.034 94.466 2.006c49.588-11.209 97.477-40.761 118.849-86.89 16.492 16.079 46.248 15.465 62.063-1.281s14.728-46.488-2.267-62.035c23.463-3.452 37.542-32.333 29.78-54.742z" class="D"/><path d="M331.252 937.154c-8.866-16.926-14.508-34.658-23.374-50.779-20.956 18.538-51.585 28.21-77.377 11.284-24.18-15.314-30.628-52.391-13.702-74.959-16.926-.806-32.24-10.478-41.107-24.986-28.21-45.137-4.03-99.139 31.434-132.186 62.869-58.839 162.008-58.839 228.907-9.672-25.792-20.15-29.016-58.033-15.314-86.243 32.712-67.605 106.072-97.836 177.508-106.665l-1.141-.17c-91.345-13.349-188.579 28.065-242.246 103.178-17.967-15.36-49.874-8.602-60.07 12.724-53.065-15.145-113.678-.075-153.472 38.157S84.019 715.03 97.027 768.659c8.99 37.063 35.873 73.16 73.609 78.678-13.691 19.121-14.317 44.785-9.92 67.888 4.293 22.555 13.579 45.27 31.499 59.623s45.895 17.702 63.524 2.993c38.397 36.997 100.502 44.229 148.262 21.856-8.429-2.273-16.662-5.438-24.39-10.958-20.149-14.508-37.075-30.629-48.359-51.585z" class="E"/><path d="M870.695 838.144c-7.762-22.409-32.109-36.275-55.82-36.703 7.617-30.575 15.488-61.591 14.658-93.089-2.102-79.802-30.709-134.605-69.63-172.01 16.747 22.804 27.874 49.461 34 79.215 13.702 66.093 18.538 139.44-30.628 189.412 30.628 10.478 69.317 12.09 85.437 44.331 8.866 18.538-8.866 31.435-20.956 42.719 20.15 14.508 20.15 42.719 12.09 63.675l-1.519 3.559c1.729-1.298 3.356-2.741 4.857-4.33 15.815-16.746 14.728-46.488-2.267-62.035 23.461-3.454 37.54-32.335 29.778-54.744z" class="C"/><path d="M807.477 1033.188c-6.692-5.473-15.776-7.119-24.419-6.984-3.37.053-7.192.182-9.565-2.212-2.495-2.517-2.17-6.554-2.319-10.095-.898-21.359-23.653-34.542-44.218-40.383a212.9 212.9 0 0 0-79.783-6.955c-1.837-21.775-14.475-42.373-33.054-53.877s-42.652-13.633-62.962-5.571l-62.053-14.735c-44.527 9.935-86.912 29.364-123.503 56.614-12.198 9.084-24.804 21.214-24.368 36.418.414 14.472 13.281 26.162 27.225 30.059s28.773 1.75 43.086-.424c9.076 22.022 27.787 39.869 50.213 47.897s48.212 6.108 69.202-5.152c3.634-1.95 7.397-4.233 11.518-4.052 4.649.204 8.497 3.469 12.226 6.252 24.943 18.617 58.24 20.653 89.364 20.455 48.797-.31 97.569-4.345 145.753-12.056 9.102-1.457 19.424-3.901 23.739-12.047 4.045-7.638.609-17.679-6.082-23.152z" class="D"/><path d="M666.552 1046.772c-24.18 10.478-50.779 6.448-74.959-4.03-20.956-9.672-34.658-31.434-33.852-55.615-36.271 20.15-80.601 29.822-118.484 8.06-19.344-11.284-32.24-32.241-33.046-54.003-.326-5.21-1.045-11.341-1.097-17.383-13.753 7.434-26.973 15.853-39.512 25.191-12.198 9.084-24.804 21.214-24.368 36.418.414 14.472 13.281 26.162 27.225 30.059s28.773 1.75 43.086-.424c9.076 22.022 27.787 39.869 50.213 47.897s48.212 6.108 69.202-5.152c3.634-1.95 7.397-4.233 11.518-4.052 4.649.204 8.497 3.469 12.226 6.252 24.943 18.617 58.24 20.653 89.364 20.455a960.17 960.17 0 0 0 61.304-2.359c-15.495-6.62-29.156-16.818-38.82-31.314z" class="E"/><path d="M807.477 1033.188c-6.692-5.473-15.776-7.119-24.419-6.984-3.37.053-7.192.182-9.565-2.212-2.495-2.517-2.17-6.554-2.319-10.095-.898-21.359-23.653-34.542-44.218-40.383a212.9 212.9 0 0 0-79.783-6.955c-1.837-21.775-14.475-42.373-33.054-53.877-1.518-.94-3.076-1.811-4.663-2.625 20.267 13.747 30.704 41.775 31.304 65.784 33.852-3.224 70.123-4.03 101.557 15.314 13.702 9.672 11.284 28.21 17.732 39.494 3.224 6.448 17.732 4.836 27.404 10.478 8.866 4.836 8.06 17.732 3.224 25.792a52.91 52.91 0 0 1-.867 1.468c9.111-1.458 19.433-3.902 23.748-12.048 4.046-7.637.61-17.678-6.081-23.151z" class="C"/><path d="M465.914 865.602c-16.524-11.096-40.432-11.61-55.6 1.276.435-27.542-15.018-54.777-38.883-68.53s-55.178-13.468-78.789.718l5.416-2.027c26.04-3.186 53.334 6.25 71.846 24.838s27.837 45.92 24.545 71.947c17.041-9.226 36.697-14.918 55.843-11.933s37.399 15.945 42.973 34.504c-1.482-19.85-10.828-39.698-27.351-50.793zm71.1 396.228c-34.039-46.484-73.262-89.099-105.579-136.796-5.644-8.33-11.144-16.962-13.943-26.626-2.768-9.555-2.767-19.662-2.745-29.609l.288-127.059-16.873 12.158-19.704 178.404c-.697 6.315-1.38 12.827.402 18.926 1.91 6.541 6.45 11.93 10.78 17.192 64.039 77.837 106.215 173.471 120.507 273.248 33.853-3.243 67.219-11.531 98.654-24.505-8.404-56.999-37.748-108.848-71.787-155.333z" class="E"/><path d="M537.014 1261.83c-34.039-46.484-73.262-89.099-105.579-136.796-5.644-8.33-11.144-16.962-13.943-26.626-2.768-9.555-2.767-19.662-2.745-29.609l.11-48.602s-5.398-5.983-7.84-6.471c0 11.284 0 21.762-.806 33.046-2.418 24.18-4.836 49.167 7.254 70.929 23.374 44.331 59.645 74.153 89.467 115.26 16.926 23.374 33.852 42.719 49.167 67.705 24.363 38.206 34.651 80.215 39.228 123.154 5.883-2.061 11.711-4.278 17.473-6.656-8.403-57-37.747-108.849-71.786-155.334z" class="C"/><path d="M564.862 1062.693c-1.349 20.136-11.72 63.955-13.377 65.473-1.796 1.646-138.821-5.355-138.821-5.355s18.632 39.644 18.581 46.528c43.384-7.117 87.347-10.695 131.311-10.687l15.405-108.496-13.099 12.537z" class="E"/><path d="M566.607 1106.416c-1.612 16.12-6.448 31.434-9.672 46.749-23.471.602-46.043 4.35-68.723 8.894 24.712-2.272 49.528-3.412 74.345-3.408l7.565-53.598c-1.08.427-1.695.843-3.515 1.363zm6.21-35.057l-3.792 25.385c0 .409.918.852 2.259.443l3.667-25.828h-2.134z" class="C"/><path d="M614.187 1074.439l-4.777 15.127c-.164.519-.347 1.068-.766 1.416-.393.327-.925.419-1.43.499l-41.175 6.539-.014 7.876a438.03 438.03 0 0 0 44.211-9.443c.838-.225 1.714-.474 2.336-1.079.825-.804 1.012-2.04 1.156-3.182l2.258-18.005-1.799.252z" class="E"/><path d="M614.552 1079.585c-1.154 6.45-2.866 14.266-2.866 14.266s-28.479 7.071-42.661 11.545c13.869-2.32 27.628-5.299 41.21-8.943.838-.225 1.714-.474 2.336-1.079.825-.804 1.012-2.04 1.156-3.182l1.581-12.606h-.756z" class="C"/><path d="M280.099 1042.094l-6.073-65.94-5.13-9.525-4.164 77.354c-.157 2.912-.266 6.025 1.242 8.52 1.71 2.828 5.05 4.148 8.158 5.271 37.999 13.738 76.475 26.158 115.335 37.23a104.13 104.13 0 0 0 7.859-29.935 2986.9 2986.9 0 0 0-117.227-22.975z" class="E"/><path d="M276.443 1043.548c35.465 12.09 72.541 14.508 108.811 23.374v-4.438a2987.06 2987.06 0 0 0-105.156-20.39l-4.711-51.148c-.611-.357-1.301-.594-2.169-.594l3.225 53.196z" class="C"/><path d="M809.782 1198.839c-13.768 15.267-25.505 36.854-28.011 66.922 0 0 16.704-.877 34.974-12.657 20.87-21.963 36.342-48.985 38.155-79.804-16.835 5.892-31.7 14.414-45.118 25.539z" class="D"/><path d="M862.25 1165.265s-29.148 7.715-52.468 33.575c13.418-11.126 28.283-19.647 45.118-25.539-1.813 30.819-17.285 57.841-38.155 79.804 19.585-12.629 40.968-37.787 45.505-87.84z" class="C"/><path d="M855.983 1287.019c-26.338-5.853-51.795 3.233-74.002 16.965-2.549 2.411-5.058 5.063-7.503 8.004 0 0 10.074 6.289 25.496 6.872 14.042.531 32.519-3.676 51.867-21.664 1.315-4.207 5.171-9.148 4.142-10.177z" class="D"/><path d="M862.193 1286.286s-20.095-7.375-44.185-1.824c-11.682 2.692-24.302 8.433-36.027 19.522 22.207-13.732 47.664-22.818 74.002-16.965 1.029 1.029-2.827 5.97-4.143 10.177 3.431-3.189 6.888-6.804 10.353-10.91z" class="C"/><path d="M746.727 1268.477c2.077 10.39 7.392 21.885 19.054 32.171 0 0 4.777-7.177 5.526-18.356-2.661-15.386-9.074-30.098-21.26-40.329-2.742 8.774-3.792 17.542-3.32 26.514z" class="D"/><path d="M748.986 1236.452s-5.777 14.426-2.259 32.025c-.472-8.971.577-17.74 3.32-26.514 12.186 10.231 18.599 24.943 21.26 40.329.804-11.983-3.02-28.565-22.321-45.84z" class="C"/><g class="E"><path d="M859.04 1166.532c-47.493 45.644-85.437 102.735-106.853 165.167-5.939 17.313-10.487 35.077-13.405 53.149-.33 2.046 2.8 2.926 3.133.864 10.451-64.731 41.552-125.643 82.4-176.442a428.55 428.55 0 0 1 37.023-40.441c1.51-1.451-.79-3.747-2.298-2.297h0z"/><path d="M859.86 1285.68c-21.047 2.461-41.166 8.945-61.068 15.975-16.862 5.956-34.602 12.293-45.033 27.781-1.171 1.739 1.642 3.367 2.805 1.64 10.609-15.752 29.594-21.574 46.635-27.534 18.447-6.451 37.18-12.335 56.661-14.613 2.052-.24 2.077-3.492 0-3.249h0z"/></g><path d="M820.798 1330.835c-10.053 1.122-21.423 5.233-32.165 15.481 0 0 6.434 5.133 17.005 6.764 14.854-1.267 29.373-6.159 40.106-16.909-8.12-3.33-16.374-5.048-24.946-5.336z" class="D"/><path d="M851.073 1335.614s-13.247-6.68-30.275-4.779c8.572.288 16.826 2.006 24.946 5.336-10.733 10.75-25.252 15.642-40.106 16.909 11.332 1.749 27.418-.526 45.435-17.466z" class="C"/><path d="M809.002 1378.377c-7.782-10.756-20.118-15.726-32.776-17.925-1.725.055-3.515.212-5.376.495 0 0 1.654 5.604 7.139 10.856 4.994 4.782 13.169 9.268 26.164 8.967 1.859-1.119 4.892-1.678 4.849-2.393z" class="D"/><path d="M811.527 1380.135s-4.987-9.277-15.666-15.102c-5.179-2.825-11.698-4.833-19.635-4.582 12.658 2.199 24.994 7.169 32.776 17.925.043.715-2.99 1.274-4.848 2.393 2.304-.053 4.757-.254 7.373-.634z" class="C"/><path d="M774.848 1335.87c-2.629 4.502-4.427 10.469-3.494 18.063 0 0 4.102-1.081 8.029-4.951 4.046-6.532 6.49-14.041 5.347-21.786a36.72 36.72 0 0 0-9.882 8.674z" class="D"/><path d="M786.139 1324.822s-6.838 3.422-11.291 11.049c2.756-3.456 6.006-6.34 9.881-8.674 1.143 7.745-1.301 15.254-5.347 21.786 4.21-4.148 8.218-11.5 6.757-24.161z" class="C"/><g class="E"><path d="M849.525 1335.031c-41.214 1.723-83.455 14.958-115.738 41.178-.799.649.338 1.774 1.13 1.13 31.932-25.935 73.853-39.006 114.607-40.71 1.026-.042 1.032-1.641.001-1.598h0z"/><path d="M810.739 1379.058c-8.226-5.672-17.278-9.757-26.494-13.531-8.601-3.522-17.281-7.107-26.683-4.936-1.002.231-.578 1.773.425 1.542 9.672-2.234 18.749 1.993 27.495 5.62 8.528 3.536 16.83 7.433 24.449 12.687.85.584 1.651-.801.808-1.382h0z"/></g><path d="M709.408 1266.873c-.592 10.098 1.54 21.999 9.827 34.318 0 0 6.146-5.475 9.539-15.619 1.26-14.854-1.11-29.991-9.894-42.385-4.653 7.44-7.741 15.285-9.472 23.686z" class="D"/><path d="M719.231 1237.839s-8.821 11.929-9.823 29.033a71.26 71.26 0 0 1 9.472-23.687c8.783 12.394 11.153 27.531 9.894 42.385 3.637-10.873 4.111-27.112-9.543-47.731z" class="C"/><path d="M754.275 1286.527c-11.915 5.854-18.898 17.174-23.203 29.278a45.25 45.25 0 0 0-.42 5.382s5.803-.683 11.905-5.203c5.556-4.115 11.358-11.415 13.256-24.274-.787-2.02-.826-5.104-1.538-5.183z" class="D"/><path d="M756.435 1284.335s-9.986 3.349-17.531 12.89c-3.659 4.627-6.739 10.714-7.832 18.58 4.305-12.104 11.287-23.425 23.203-29.278.712.079.751 3.163 1.539 5.183.337-2.28.553-4.731.621-7.375z" class="C"/><path d="M706.611 1313.012c3.994 3.351 9.571 6.131 17.214 6.495 0 0-.373-4.226-3.524-8.75-5.755-5.091-12.743-8.768-20.57-8.949a36.7 36.7 0 0 0 6.88 11.204z" class="D"/><path d="M697.628 1300.018s2.219 7.318 8.983 12.994c-2.941-3.3-5.235-6.991-6.88-11.204 7.827.181 14.815 3.858 20.57 8.949-3.377-4.849-9.946-10.041-22.673-10.739z" class="C"/><g class="E"><path d="M718.383 1239.401c-5.247 40.819.673 84.669 21.016 120.836.504.897 1.886.092 1.38-.807-20.216-35.941-26.012-79.473-20.798-120.029.132-1.017-1.468-1.008-1.598 0h0z"/><path d="M755.287 1284.879c-6.979 7.149-12.547 15.368-17.825 23.815-4.912 7.863-9.96 15.826-9.408 25.45.059 1.023 1.658 1.03 1.599 0-.569-9.93 5.082-18.133 10.145-26.166 4.919-7.806 10.156-15.347 16.62-21.969.719-.736-.411-1.868-1.131-1.13h0z"/></g><path d="M424.733 1272.469c18.083 9.779 36.368 26.193 48.791 53.689 0 0-16.035 4.764-37.193-.223-27.016-13.712-50.639-33.999-62.661-62.434 17.836-.081 34.695 2.974 51.063 8.968z" class="D"/><path d="M364.055 1258.388s30.049-2.484 60.678 14.081c-16.368-5.994-33.228-9.049-51.063-8.968 12.022 28.435 35.645 48.722 62.661 62.434-22.681-5.346-51.251-21.897-72.276-67.547z" class="C"/><path d="M410.705 1371.026c22.861-14.329 49.891-14.287 75.413-8.778a91.58 91.58 0 0 1 9.749 5.032s-7.388 9.297-21.726 15.008c-13.055 5.2-31.874 7.418-56.127-3.058-2.647-3.525-7.934-6.89-7.309-8.204z" class="D"/><path d="M404.608 1372.413s16.468-13.675 41.027-16.506c11.91-1.373 25.723-.186 40.483 6.34-25.522-5.509-52.552-5.551-75.413 8.778-.625 1.314 4.662 4.68 7.309 8.204-4.299-1.857-8.767-4.106-13.406-6.816z" class="C"/><path d="M507.457 1316.99c1.52 10.486.358 23.097-7.19 36.693 0 0-6.903-5.165-11.35-15.448-2.642-15.39-1.521-31.399 6.538-45.119 5.521 7.35 9.444 15.262 12.002 23.874z" class="D"/><path d="M494.611 1287.567s10.272 11.661 12.846 29.422c-2.557-8.612-6.481-16.524-12.002-23.874-8.059 13.719-9.18 29.729-6.538 45.119-4.768-11.023-6.714-27.929 5.694-50.667z" class="C"/><g class="E"><path d="M365.986 1261.378c59.616 26.928 114.081 67.672 154.899 118.964 11.344 14.256 21.514 29.423 30.27 45.402 1.005 1.834 3.812.197 2.805-1.64-31.482-57.458-81.038-104.432-136.334-138.835a428.6 428.6 0 0 0-49.999-26.696c-1.892-.854-3.546 1.945-1.641 2.805h0z"/><path d="M407.579 1374.159c19.071-4.358 38.592-5.124 58.086-5.222 18.333-.092 38.2-.935 53.698 10.495 1.684 1.242 3.306-1.576 1.64-2.806-15.43-11.38-35.101-11.006-53.404-10.947-20.424.066-40.899.78-60.883 5.346-2.038.466-1.176 3.6.863 3.134h0z"/></g><path d="M458.525 1400.54c9.849-2.307 21.939-2.238 35.492 3.824 0 0-4.345 6.99-13.761 12.065-14.421 3.777-29.741 4.026-43.452-2.513 6.537-5.854 13.74-10.236 21.721-13.376z" class="D"/><path d="M431.595 1415.176s10.248-10.728 26.93-14.635c-7.981 3.14-15.184 7.522-21.722 13.377 13.711 6.539 29.031 6.29 43.452 2.513-10.093 5.439-26.013 8.678-48.66-1.255z" class="C"/><path d="M485.551 1441.394c3.734-12.74 13.695-21.552 24.887-27.86a44.94 44.94 0 0 1 5.232-1.332s.317 5.835-3.094 12.619c-3.106 6.177-9.308 13.14-21.655 17.205-2.126-.432-5.171.056-5.37-.632z" class="D"/><path d="M483.76 1443.896s1.595-10.411 9.708-19.474c3.935-4.395 9.406-8.469 16.97-10.889-11.192 6.308-21.154 15.12-24.887 27.86.199.688 3.244.2 5.37.632-2.19.721-4.569 1.353-7.161 1.871z" class="C"/><path d="M503.51 1389.908c3.984 3.363 7.675 8.384 9.338 15.852 0 0-4.227.354-9.223-1.978-5.998-4.801-10.815-11.059-12.329-18.74 4.433.901 8.461 2.532 12.214 4.866z" class="D"/><path d="M489.173 1383.275s7.589.937 14.337 6.633c-3.754-2.334-7.782-3.965-12.214-4.867 1.515 7.681 6.331 13.939 12.329 18.74-5.354-2.499-11.592-8.085-14.452-20.506z" class="C"/><g class="E"><path d="M433.338 1415.632c39.079-12.058 82.94-13.738 121.809.041.972.344 1.39-1.2.425-1.542-39.12-13.867-83.327-12.177-122.659-.041-.98.303-.562 1.847.425 1.542h0z"/><path d="M485.443 1443.536c5.243-7.253 11.543-13.517 18.154-19.513 7.15-6.485 14.471-13.852 24.532-15.007 1.01-.116 1.022-1.716 0-1.599-9.353 1.073-16.212 7.03-22.987 13.074-7.658 6.831-15.049 13.895-21.079 22.238-.604.835.782 1.634 1.38.807h0z"/></g><path d="M542.087 1302.989c3.937 9.318 5.91 21.246 2.224 35.628 0 0-7.624-3.103-14.216-11.526-6.158-13.576-8.991-28.634-4.861-43.252 6.875 5.454 12.411 11.813 16.853 19.15z" class="D"/><path d="M523.114 1278.917s12.305 8.289 18.973 24.072c-4.442-7.337-9.978-13.696-16.853-19.151-4.129 14.619-1.297 29.676 4.861 43.252-7.066-9.029-12.947-24.174-6.981-48.173z" class="C"/><path d="M506.384 1336.526c13.187 1.528 23.555 9.859 31.663 19.825.796 1.532 1.534 3.17 2.197 4.931 0 0-5.697 1.298-12.96-.919-6.613-2.019-14.523-6.955-20.615-18.439.066-2.167-.929-5.086-.285-5.398z" class="D"/><path d="M503.616 1335.183s10.531-.186 20.834 6.281c4.996 3.136 9.936 7.841 13.598 14.887-8.107-9.966-18.475-18.297-31.663-19.825-.645.312.351 3.231.284 5.399-1.081-2.036-2.105-4.274-3.053-6.742z" class="C"/><path d="M560.163 1345.533c-2.642 4.495-6.967 8.98-14.048 11.881 0 0-1.062-4.107.393-9.424 3.719-6.723 9.074-12.527 16.389-15.317a36.71 36.71 0 0 1-2.734 12.86z" class="D"/><path d="M564.28 1330.282s.358 7.638-4.117 15.251c1.667-4.094 2.594-8.339 2.734-12.86-7.315 2.79-12.67 8.594-16.389 15.317 1.56-5.701 6.013-12.792 17.772-17.708z" class="C"/><g class="E"><path d="M522.993 1280.776c18.44 36.39 27.524 79.329 20.521 119.869-.174 1.006 1.366 1.438 1.542.425 7.081-40.991-2.033-84.3-20.682-121.101-.466-.918-1.846-.11-1.381.807h0z"/><path d="M504.132 1336.723c8.581 4.211 16.251 9.775 23.73 15.682 7.202 5.689 15.002 11.459 17.643 20.697.282.987 1.825.568 1.542-.425-2.558-8.951-9.628-14.692-16.647-20.284-8.021-6.391-16.22-12.516-25.46-17.05-.921-.452-1.732.926-.808 1.38h0z"/></g><g class="D"><path d="M727.647 1415.545c-20.578 7.581-46.571 3.249-57.401-17.329-16.245 18.411-42.238 25.993-63.899 14.079-9.181-4.943-13.754-14.032-15.527-24.261-5.247 13.842-4.921 29.858 1.531 43.224l.443-2.585c3.752 8.439 12.142 14.158 21.049 16.6s18.344 2 27.516.92c14.25-1.678 30.118-6.156 36.712-18.899 15.242 10.389 35.83 8.328 53.279 2.346 8.477-2.906 16.949-6.831 22.82-13.6 5.715-6.589 8.367-16.421 4.701-24.275-8.567 9.855-18.627 18.593-31.224 23.78z"/><path d="M728.73 1388.469c6.498-16.246 6.498-42.239-16.245-44.405-23.827-2.166-45.488 11.913-55.235 32.491-8.38-10.056-20.007-16.848-32.864-18.915-10.124 1.997-19.187 8.256-25.633 16.351-3.371 4.234-6.019 8.995-7.932 14.043 1.773 10.229 6.346 19.318 15.527 24.261 21.661 11.913 47.654 4.332 63.899-14.079 10.83 20.578 36.823 24.91 57.401 17.329 11.097-4.569 20.224-11.896 28.098-20.313-4.063-9.953-17.589-9.592-27.016-6.763z"/></g><path d="M758.575 1391.116c-4.127-7.954-16.153-11.308-22.6-5.084 10.905-12.966 4.709-34.849-9.735-43.704s-33.631-6.55-48.46 1.643c-9.783 5.405-18.49 13.54-22.362 24.025-6.838-8.497-18.602-12.262-29.388-10.65-.552.083-1.099.186-1.645.294 12.857 2.067 24.484 8.859 32.864 18.915 9.747-20.578 31.408-34.657 55.235-32.491 22.744 2.166 22.744 28.159 16.245 44.405 9.427-2.828 22.953-3.19 27.015 6.762 1.064-1.138 2.107-2.294 3.127-3.467-.1-.216-.186-.435-.296-.648z" class="C"/><path fill="#575c95" d="M2335.036 1039.133l41.713 80.793 148.496 63.785v76.541l-175.193 140.326-40.043-12.757-186.501 412.216H2850V964.718h-646.775l15.016 46.775z"/><path fill="#322d5c" d="M2335.036 1039.133l41.713 80.793 148.496 63.785v76.541l-175.193 140.326-40.043-12.757-186.501 412.216H2850v-646.219l-93.84-6.515-52.061-63.929-183.724-10.222-18.42-24.661h-105.54l-8.07-23.636 53.327-20.682-230.456-14.563 7.025 21.883z"/><path fill="#3b3d69" d="M2704.099 1083.374l18.072 181.247 42.438 21.011-8.449-138.329z"/><path d="M2850 1800.037v-346.222l-85.391-168.183-42.438-21.011-4.505-45.182-207.686-75.428-10.034-40.405-99.94-23.015-23.257 39.335 148.496 63.785v76.541l-175.193 140.326-40.043-12.757-186.501 412.216z" class="J"/><path fill="#242042" d="M2382.524 1594.998l-35.233 205.039H2850v-335.225l-324.755-204.56 85.257 67.551-80.708 215.191z"/><path d="M2388.345 1024.855l11.661 55.736-3.591-32.1zm113.61 23.636l-2.009 55.115 10.034 40.405 10.395-70.859zM2850 1469.982v-85.501l-375.025-9.34v44.517l98.729 22.964-13.67 27.36z" fill="#3b3d69"/><path fill="#322d5c" d="M2474.975 1419.658l35.185 84.053 39.365 10.445 9.016 48.044 67.209 89.822 53.276-77.289 16.192-104.751h-135.184l13.67-27.36z"/><g fill="#2e2954"><path d="M2850 1469.982h-195.058l-21.609 107.64-61.097 2.881 53.514 71.519 183.401-77.289 40.849-87.224z"/><path d="M2560.034 1469.982l12.202 110.521-13.695-18.303-9.016-48.044-39.365-10.445-35.185-84.053 98.729 22.964z"/></g><path fill="#242042" d="M2572.236 1580.503l53.514 71.519 7.583-74.399z"/><path d="M2739.625 1800.037H2850v-312.528l-40.849 87.224-183.401 77.289 31.806 83.658z" class="J"/></svg>