<?xml version="1.0"?>
<svg xmlns="http://www.w3.org/2000/svg" xmlns:xlink="http://www.w3.org/1999/xlink" xmlns:svgjs="http://svgjs.com/svgjs" version="1.1" width="512" height="512" x="0" y="0" viewBox="0 0 511.999 511.999" style="enable-background:new 0 0 512 512" xml:space="preserve" class=""><g>
<g xmlns="http://www.w3.org/2000/svg">
	<g>
		<path d="M472.901,289.331v-41.963c0-57.937-22.562-112.405-63.529-153.372C368.405,53.028,313.937,30.466,256,30.466    s-112.405,22.562-153.373,63.53c-40.967,40.967-63.529,95.436-63.529,153.372v41.963C17.332,290.566,0,308.66,0,330.731v64.974    c0,22.868,18.605,41.474,41.473,41.474h23.976c1.706,24.741,22.366,44.354,47.533,44.354c26.28,0,47.661-21.381,47.661-47.661    V292.566c0-26.28-21.381-47.661-47.661-47.661c-4.827,0-9.485,0.727-13.879,2.067C99.318,160.638,169.617,90.466,256,90.466    s156.682,70.172,156.896,156.506c-4.394-1.34-9.053-2.067-13.879-2.067c-26.28,0-47.661,21.381-47.661,47.661v141.305    c0,26.28,21.381,47.661,47.661,47.661c25.167,0,45.827-19.612,47.533-44.354h23.976c22.868,0,41.473-18.605,41.473-41.474V330.73    C512,308.66,494.668,290.566,472.901,289.331z" fill="#f5f5f5" data-original="#000000" style="" class=""/>
	</g>
</g>
<g xmlns="http://www.w3.org/2000/svg">
</g>
<g xmlns="http://www.w3.org/2000/svg">
</g>
<g xmlns="http://www.w3.org/2000/svg">
</g>
<g xmlns="http://www.w3.org/2000/svg">
</g>
<g xmlns="http://www.w3.org/2000/svg">
</g>
<g xmlns="http://www.w3.org/2000/svg">
</g>
<g xmlns="http://www.w3.org/2000/svg">
</g>
<g xmlns="http://www.w3.org/2000/svg">
</g>
<g xmlns="http://www.w3.org/2000/svg">
</g>
<g xmlns="http://www.w3.org/2000/svg">
</g>
<g xmlns="http://www.w3.org/2000/svg">
</g>
<g xmlns="http://www.w3.org/2000/svg">
</g>
<g xmlns="http://www.w3.org/2000/svg">
</g>
<g xmlns="http://www.w3.org/2000/svg">
</g>
<g xmlns="http://www.w3.org/2000/svg">
</g>
</g></svg>
