<?xml version="1.0"?>
<svg xmlns="http://www.w3.org/2000/svg" id="Capa_1" enable-background="new 0 0 512.064 512.064" height="512px" viewBox="0 0 512.064 512.064" width="512px" class=""><g><g><path d="m168.853 148.581-63.377-63.377c4.919-8.386 7.754-18.136 7.754-28.541 0-31.208-25.39-56.599-56.599-56.599s-56.599 25.39-56.599 56.599 25.39 56.599 56.599 56.599c9.93 0 19.266-2.579 27.387-7.09l63.72 63.72c6.251-7.841 13.334-14.988 21.115-21.311z" data-original="#000000" class="active-path" data-old_color="#000000" fill="#FFFFFF"/><path d="m364.25 169.798 63.688-63.688c8.147 4.548 17.52 7.151 27.495 7.151 31.209 0 56.599-25.39 56.599-56.599s-25.39-56.599-56.599-56.599-56.599 25.39-56.599 56.599c0 10.361 2.811 20.072 7.692 28.434l-63.409 63.409c7.786 6.317 14.875 13.458 21.133 21.293z" data-original="#000000" class="active-path" data-old_color="#000000" fill="#FFFFFF"/><path d="m147.681 342.166-63.744 63.744c-8.102-4.483-17.409-7.043-27.306-7.043-31.208 0-56.599 25.39-56.599 56.599s25.39 56.599 56.599 56.599 56.599-25.39 56.599-56.599c0-10.438-2.852-20.218-7.8-28.622l63.353-63.353c-7.777-6.329-14.856-13.481-21.102-21.325z" data-original="#000000" class="active-path" data-old_color="#000000" fill="#FFFFFF"/><path d="m393.684 271h37.96c6.032 15.545 21.14 26.599 38.789 26.599 22.938 0 41.598-18.661 41.598-41.599s-18.661-41.599-41.598-41.599c-17.65 0-32.757 11.054-38.789 26.599h-37.975c.538 4.949.823 9.974.823 15.064 0 5.046-.279 10.028-.808 14.936z" data-original="#000000" class="active-path" data-old_color="#000000" fill="#FFFFFF"/><path d="m118.394 241h-37.974c-6.032-15.545-21.139-26.599-38.789-26.599-22.938 0-41.599 18.661-41.599 41.599s18.661 41.599 41.599 41.599c17.65 0 32.757-11.054 38.789-26.599h37.96c-.529-4.908-.808-9.89-.808-14.936 0-5.09.284-10.115.822-15.064z" data-original="#000000" class="active-path" data-old_color="#000000" fill="#FFFFFF"/><path d="m267.044 394.3-.211-.195c-3.565.276-7.167.419-10.801.419-3.633 0-7.234-.143-10.798-.419l-.21.195c-.07-.076-.138-.156-.208-.232-1.266-.102-2.527-.223-3.784-.359v37.903c-15.545 6.032-26.599 21.14-26.599 38.789 0 22.938 18.661 41.598 41.599 41.598s41.599-18.661 41.599-41.598c0-17.65-11.054-32.757-26.599-38.789v-37.903c-1.255.136-2.515.257-3.78.359-.07.076-.138.156-.208.232z" data-original="#000000" class="active-path" data-old_color="#000000" fill="#FFFFFF"/><path d="m271.032 118.419v-38.031c15.545-6.032 26.599-21.139 26.599-38.789 0-22.938-18.661-41.599-41.599-41.599s-41.599 18.661-41.599 41.599c0 17.65 11.054 32.757 26.599 38.789v38.031c4.929-.533 9.932-.815 15-.815s10.071.281 15 .815z" data-original="#000000" class="active-path" data-old_color="#000000" fill="#FFFFFF"/><path d="m343.188 363.565 63.385 63.385c-4.91 8.38-7.739 18.121-7.739 28.515 0 31.208 25.39 56.599 56.599 56.599s56.599-25.39 56.599-56.599-25.39-56.599-56.599-56.599c-9.941 0-19.286 2.585-27.414 7.104l-63.712-63.712c-6.252 7.84-13.337 14.986-21.119 21.307z" data-original="#000000" class="active-path" data-old_color="#000000" fill="#FFFFFF"/><path d="m283.184 231.062h-54.3c-.971 8.38-1.471 16.985-1.471 25.747 0 8.245.45 16.347 1.311 24.258h54.619c.861-7.91 1.311-16.013 1.311-24.258.001-8.762-.499-17.367-1.47-25.747z" data-original="#000000" class="active-path" data-old_color="#000000" fill="#FFFFFF"/><path d="m203.385 311.066h-41.959c13.228 22.664 34.36 40.175 59.593 48.716-7.69-14.768-13.637-31.186-17.634-48.716z" data-original="#000000" class="active-path" data-old_color="#000000" fill="#FFFFFF"/><path d="m308.327 201.062h42.31c-13.393-22.947-34.891-40.604-60.542-49.024 7.931 14.812 14.074 31.342 18.232 49.024z" data-original="#000000" class="active-path" data-old_color="#000000" fill="#FFFFFF"/><path d="m362.608 281.066c1.884-8.033 2.884-16.403 2.884-25.002s-1-16.969-2.884-25.002h-49.262c.864 8.432 1.309 17.031 1.309 25.747 0 8.204-.398 16.303-1.164 24.258h49.117z" data-original="#000000" class="active-path" data-old_color="#000000" fill="#FFFFFF"/><path d="m203.742 201.062c4.158-17.682 10.301-34.213 18.232-49.026-25.653 8.42-47.153 26.078-60.547 49.026z" data-original="#000000" class="active-path" data-old_color="#000000" fill="#FFFFFF"/><path d="m308.683 311.066c-3.997 17.529-9.943 33.947-17.634 48.714 25.231-8.541 46.361-26.052 59.588-48.714z" data-original="#000000" class="active-path" data-old_color="#000000" fill="#FFFFFF"/><path d="m197.413 256.809c0-8.717.445-17.315 1.309-25.747h-49.266c-1.884 8.033-2.884 16.403-2.884 25.002s1 16.969 2.884 25.002h49.122c-.766-7.955-1.165-16.053-1.165-24.257z" data-original="#000000" class="active-path" data-old_color="#000000" fill="#FFFFFF"/><path d="m234.644 201.062h42.781c-4.866-17.787-12.088-33.916-21.391-47.517-9.303 13.601-16.525 29.73-21.39 47.517z" data-original="#000000" class="active-path" data-old_color="#000000" fill="#FFFFFF"/><path d="m277.832 311.066h-43.595c4.866 18.378 12.235 35.025 21.797 49.006 9.563-13.98 16.932-30.628 21.798-49.006z" data-original="#000000" class="active-path" data-old_color="#000000" fill="#FFFFFF"/></g></g> </svg>
