<?xml version="1.0"?>
<svg xmlns="http://www.w3.org/2000/svg" xmlns:xlink="http://www.w3.org/1999/xlink" version="1.1" id="Capa_1" x="0px" y="0px" viewBox="0 0 512 512" style="enable-background:new 0 0 512 512;" xml:space="preserve" width="512px" height="512px" class=""><g><g transform="translate(1 1)">
	<g>
		<g>
			<path d="M255-1C113.618-1-1,113.618-1,255s114.618,256,256,256s256-114.618,256-256S396.382-1,255-1z M255,468.333     c-117.818,0-213.333-95.515-213.333-213.333S137.182,41.667,255,41.667S468.333,137.182,468.333,255S372.818,468.333,255,468.333     z" data-original="#000000" class="active-path" data-old_color="#000000" fill="#FF4949"/>
			<path d="M191,148.333h128c11.782,0,21.333-9.551,21.333-21.333c0-11.782-9.551-21.333-21.333-21.333H191     c-11.782,0-21.333,9.551-21.333,21.333C169.667,138.782,179.218,148.333,191,148.333z" data-original="#000000" class="active-path" data-old_color="#000000" fill="#FF4949"/>
			<path d="M383,191H127c-11.782,0-21.333,9.551-21.333,21.333c0,11.782,9.551,21.333,21.333,21.333h256     c11.782,0,21.333-9.551,21.333-21.333C404.333,200.551,394.782,191,383,191z" data-original="#000000" class="active-path" data-old_color="#000000" fill="#FF4949"/>
			<path d="M383,276.333H127c-11.782,0-21.333,9.551-21.333,21.333c0,11.782,9.551,21.333,21.333,21.333h256     c11.782,0,21.333-9.551,21.333-21.333C404.333,285.885,394.782,276.333,383,276.333z" data-original="#000000" class="active-path" data-old_color="#000000" fill="#FF4949"/>
			<path d="M319,361.667H191c-11.782,0-21.333,9.551-21.333,21.333c0,11.782,9.551,21.333,21.333,21.333h128     c11.782,0,21.333-9.551,21.333-21.333C340.333,371.218,330.782,361.667,319,361.667z" data-original="#000000" class="active-path" data-old_color="#000000" fill="#FF4949"/>
		</g>
	</g>
</g></g> </svg>
