<svg xmlns="http://www.w3.org/2000/svg" xmlns:xlink="http://www.w3.org/1999/xlink" width="443.451" height="128" viewBox="0 0 443.451 128"><defs><clipPath id="a"><path d="M2241.008,1209.342c.824.866,32.167-13.283,32.159-6.217l.609,102.427s5.408,2.615,9.951,2.615,10.971-3.189,10.971-3.189l-.411-101.854c.113-6.474,28.381,7.586,29.893,6.582s3.276-22.162-1.991-23.568a138.522,138.522,0,0,0-38.462-5.969c-20.8-.1-41.04,6.569-41.04,6.569C2240.3,1187.375,2240.184,1208.476,2241.008,1209.342Z" transform="translate(-2240.545 -1180.167)" fill="none" stroke="#707070" stroke-linejoin="round" stroke-width="0.5"/></clipPath></defs><g transform="translate(-65.849 -1463)"><g transform="translate(-81.096 1313.833)"><g transform="translate(147.096 157.529)"><path d="M2247.725,1184.286s-4.458,26.591,3.108,31.224,26.613,9.517,26.613,9.517v17.063s-43.471-8.309-45.277-11.438-3.672-35.673-2.889-37.92S2247.725,1184.286,2247.725,1184.286Z" transform="translate(-2229.096 -1184.214)" fill="#ebebeb" stroke="rgba(112,112,112,0.12)" stroke-linejoin="round" stroke-width="0.2"/><path d="M2287.421,1185.251c1.968,7.731,2.686,19.325-5.489,37.6,0,0,.619,2.01,8.842,5.3s11.969,2.833,11.969,2.833c.914-3.015,2.614-15.039,3.088-22.331s.255-7.037,0-14.731C2305.752,1191.507,2287.421,1185.251,2287.421,1185.251Z" transform="translate(-2178.112 -1185.251)" fill="#ebebeb" stroke="rgba(112,112,112,0.12)" stroke-linejoin="round" stroke-width="0.2"/><path d="M2269.285,1209.594l43.222,11.217c-6.49,24.912-19.794,46.411-43.222,59.833V1258.3c18.188-10.233,20.548-26.369,20.548-26.369l-20.548-4.91Z" transform="translate(-2189.312 -1166.362)" fill="#ebebeb" stroke="rgba(112,112,112,0.12)" stroke-linejoin="round" stroke-width="0.2"/><path d="M2276.187,1250.148v22.661c-11.465-5.984-35.6-18.376-43.63-55.281l22.595,5.74C2254.3,1241.69,2276.187,1250.148,2276.187,1250.148Z" transform="translate(-2227.52 -1158.052)" fill="#ebebeb" stroke="rgba(112,112,112,0.12)" stroke-linejoin="round" stroke-width="0.2"/></g><g transform="translate(168.36 149.167)" clip-path="url(#a)"><g transform="translate(-9.307 -11.176)" fill="#e05858" stroke="#707070" stroke-width="1"><rect width="133" height="145.122" stroke="none"/><rect x="0.5" y="0.5" width="132" height="144.122" fill="none"/></g><g transform="translate(-9.622 -13.518)"><path d="M2451.09,1181.977l-14.824-8.308-23.018,19.245,33.977,6.962Z" transform="translate(-2385.807 -1173.406)" fill="#ff3b3b"/><path d="M2431.7,1220.985l9.607,57.681-19.421-1.782Z" transform="translate(-2376.767 -1124.199)" fill="#ff2828"/><path d="M2421.006,1233.72l24.743,7.829.4-27.921-27.3-7.757Z" transform="translate(-2379.948 -1139.918)" fill="#e05858"/><path d="M2443.98,1230.407l-10.218-12.174-14.76-6.3.92-10.128,39.2,11.42Z" transform="translate(-2379.782 -1144.147)" fill="#ff2828"/><path d="M2440.317,1224.579l-27.573-28.981,74.368,9.972Z" transform="translate(-2386.337 -1150.601)" fill="#ff3b3b"/><path d="M2420.65,1238.063l14.176-13.33-15.354-5.979Z" transform="translate(-2379.289 -1126.519)" fill="#ff6262"/><path d="M2425.994,1276.382l6.448-38.021,2.806-15.635L2435,1221.5l-16.434,16.481v38.4Z" transform="translate(-2380.236 -1123.663)" fill="#e05858"/><path d="M2432.124,1256.631l4.243-3.77,1.247-27.929-11.02-3.4Z" transform="translate(-2371.828 -1123.628)" fill="#ff3b3b"/><path d="M2432.6,1262.087h8.077l-7.245-25.217-4.163,3.824Z" transform="translate(-2369.025 -1107.679)" fill="#ff5353"/><path d="M2429.356,1193.634l4.244-14.762,66.552,5.077-16.977,40.926Z" transform="translate(-2368.936 -1167.995)" fill="#ff2828"/><path d="M2407.366,1204.566l21.789-11.485,22.486-19.541-51.794,2.664Z" transform="translate(-2399.846 -1173.541)" fill="#e05858"/><path d="M2417.718,1183.119l31.488,6.022-38.376,19.118Z" transform="translate(-2388.34 -1163.579)" fill="#ff2828"/><path d="M2410.816,1205.136l38.332-19.123,55.7,32.266Z" transform="translate(-2388.356 -1160.57)" fill="#e05858"/><path d="M2403.344,1195.466l1.06,20.031h13.489l10.332-33.547Z" transform="translate(-2396.181 -1164.794)" fill="#ff3535"/></g></g></g><g transform="translate(-3 -10)"><path d="M40.5,0H56.025l-19.2-52.875H19.875L.6,0H16.05L18.9-8.625H37.65ZM33.975-19.875H22.65l5.625-17.1ZM60.825,0h14.7V-55.5h-14.7Zm23.1,0h14.7V-55.5h-14.7Zm23.1,0h14.7V-42.075h-14.7Zm7.425-45.975c5.175,0,8.55-3.3,8.55-7.5,0-4.275-3.375-7.65-8.55-7.65-5.25,0-8.625,3.375-8.625,7.65C105.825-49.275,109.2-45.975,114.45-45.975Zm13.275,24.9c0,13.425,7.95,21.6,17.925,21.6,5.925,0,10.2-2.625,12.375-6.375V0h14.7V-42.075h-14.7v5.85c-2.175-3.75-6.375-6.375-12.375-6.375C135.675-42.6,127.725-34.5,127.725-21.075Zm30.3,0c0,5.7-3.525,8.775-7.65,8.775-4.2,0-7.65-3.15-7.65-8.775,0-5.7,3.45-8.7,7.65-8.7C154.5-29.775,158.025-26.7,158.025-21.075ZM209.775,0h14.7V-24.525c0-11.025-6.075-17.925-15.825-17.925a15.182,15.182,0,0,0-12.825,6.375v-6h-14.7V0h14.7V-22.575c0-4.875,2.7-7.725,7.05-7.725,4.2,0,6.9,2.85,6.9,7.725Zm20.4-21.075c0,13.425,8.775,21.6,21.3,21.6,10.65,0,18.45-6.225,20.55-16.65h-15.6C255.6-13.5,253.95-12,251.175-12c-3.6,0-6-3-6-9.075,0-6,2.4-9,6-9,2.775,0,4.425,1.575,5.25,4.125h15.6c-2.1-10.575-9.9-16.65-20.55-16.65C238.95-42.6,230.175-34.425,230.175-21.075ZM297-30.975c3.375,0,6.3,2.025,6.3,5.775H290.325C291-29.025,293.475-30.975,297-30.975ZM317.4-14.55H301.725a5.487,5.487,0,0,1-5.25,3.3c-3.3,0-5.925-1.95-6.225-6.825h27.825a26.648,26.648,0,0,0,.225-3.45c0-13.05-8.775-21.075-21.225-21.075-12.6,0-21.375,8.175-21.375,21.525,0,13.425,8.925,21.6,21.375,21.6C307.575.525,315.45-5.925,317.4-14.55Z" transform="translate(194 1575)" fill="#29303b"/><path d="M.928-16.965H6.322V0h4.06V-16.965h5.394v-3.277H.928ZM31.465,0h4.06V-20.242h-4.06v8.323H22.794v-8.323h-4.06V0h4.06V-8.613h8.671ZM51.272-20.271H39.527V0H51.272V-3.306H43.587V-8.671H50.4V-11.89H43.587v-5.075h7.685Zm9.512,3.306h5.394V0h4.06V-16.965h5.394v-3.277H60.784ZM92.742-5.858c0-7.134-10.382-4.872-10.382-8.932,0-1.653,1.189-2.436,2.784-2.378a2.672,2.672,0,0,1,2.9,2.407H92.51c-.261-3.654-3.1-5.771-7.25-5.771-4.176,0-7.134,2.2-7.134,5.858C78.1-7.337,88.537-9.976,88.537-5.6c0,1.45-1.131,2.465-3.045,2.465a2.779,2.779,0,0,1-3.074-2.7h-4.35C78.126-2,81.374.2,85.579.2,90.19.2,92.742-2.668,92.742-5.858Z" transform="translate(209 1512)" fill="#e05858"/></g></g></svg>