<svg xmlns="http://www.w3.org/2000/svg" xmlns:xlink="http://www.w3.org/1999/xlink" width="406.597" height="128" viewBox="0 0 406.597 128"><defs><clipPath id="a"><path d="M2241.01,1209.342c.829.866,32.365-13.283,32.357-6.217l.613,102.427s5.442,2.615,10.012,2.615,11.039-3.189,11.039-3.189l-.414-101.854c.113-6.474,28.555,7.586,30.077,6.581s3.3-22.162-2-23.568a140.146,140.146,0,0,0-38.7-5.969c-20.932-.1-41.292,6.569-41.292,6.569C2240.3,1187.375,2240.182,1208.476,2241.01,1209.342Z" transform="translate(-2240.545 -1180.167)" fill="none" stroke="#707070" stroke-linejoin="round" stroke-width="0.5"/></clipPath></defs><g transform="translate(-44.931 -35.167)"><g transform="translate(-19 10)"><g transform="translate(11)"><path d="M1.536-36.16h11.9V0H24.384V-36.16h11.9v-8.768H1.536Zm72.9,22.784c0-15.04-22.208-11.52-22.208-19.328,0-2.816,1.984-4.16,4.608-4.1,2.944.064,4.992,1.792,5.184,4.672h11.84c-.448-8.576-7.04-13.44-16.832-13.44-9.408,0-16.384,4.736-16.384,13.248-.128,15.936,22.336,11.456,22.336,19.776,0,2.624-2.048,4.224-5.248,4.224-3.072,0-5.248-1.664-5.568-5.12H40.512C40.832-4.352,48.384.448,58.048.448,68.544.448,74.432-5.824,74.432-13.376Z" transform="translate(198 102)" fill="#fcfcfc"/><path d="M28.416-31.168c0,4.416-2.56,7.552-8.256,7.552H12.1V-38.528H20.16C25.856-38.528,28.416-35.648,28.416-31.168ZM4.8-44.48V0h7.3V-17.792h5.568L27.9,0h8.7L25.6-18.432c7.488-1.856,10.3-7.488,10.3-12.736C35.9-38.4,30.72-44.48,20.16-44.48ZM42.816-17.792c0,10.88,7.36,18.368,16.512,18.368A15.178,15.178,0,0,0,71.68-5.248V0h7.36V-35.264H71.68v5.12a15.01,15.01,0,0,0-12.224-5.7C50.176-35.84,42.816-28.672,42.816-17.792Zm28.864.128c0,7.616-5.184,11.9-10.688,11.9-5.44,0-10.688-4.416-10.688-12.032S55.552-29.5,60.992-29.5C66.5-29.5,71.68-25.216,71.68-17.664Zm14.528-.128c0,10.88,7.36,18.368,16.64,18.368a14.62,14.62,0,0,0,12.224-5.888V0h7.36V-47.36h-7.36v17.024a16.242,16.242,0,0,0-12.16-5.5C93.568-35.84,86.208-28.672,86.208-17.792Zm28.864.128c0,7.616-5.184,11.9-10.688,11.9-5.44,0-10.688-4.416-10.688-12.032S98.944-29.5,104.384-29.5C109.888-29.5,115.072-25.216,115.072-17.664ZM132.032,0h7.3V-35.264h-7.3Zm3.712-39.936a4.6,4.6,0,0,0,4.608-4.672,4.6,4.6,0,0,0-4.608-4.672,4.617,4.617,0,0,0-4.672,4.672A4.617,4.617,0,0,0,135.744-39.936Zm46.784,22.272c0-11.072-7.936-18.176-17.984-18.176s-17.984,7.1-17.984,18.176S154.176.576,164.224.576C174.336.576,182.528-6.592,182.528-17.664Zm-28.544,0c0-8,4.928-11.84,10.432-11.84,5.44,0,10.624,3.84,10.624,11.84s-5.376,11.9-10.816,11.9C158.72-5.76,153.984-9.664,153.984-17.664Z" transform="translate(277 102)" fill="#ff4848"/></g><path d="M6.58,7.6V30h4.864c3.648,0,5.632-1.984,5.632-5.664V13.264c0-3.68-1.984-5.664-5.632-5.664Zm3.392,3.136h1.344c1.632,0,2.368.864,2.368,2.752V24.112c0,1.888-.736,2.752-2.368,2.752H9.972Zm22.816,0V7.6H23.252V30h9.536V26.864H26.644V20.208H31.6V17.072h-4.96V10.736ZM45.876,30H49.46l-3.1-10.208c1.568-.9,2.4-2.56,2.4-4.928v-1.6c0-3.68-1.984-5.664-5.632-5.664h-4.9V30H41.62V20.528h1.568ZM41.62,10.736H43c1.632,0,2.368.864,2.368,2.752V14.64c0,1.888-.736,2.752-2.368,2.752H41.62ZM63.284,7.6V30h4.992c3.648,0,5.632-1.984,5.632-5.664v-.768c0-2.944-.9-4.608-3.008-5.248v-.064c1.792-.608,2.528-2.08,2.528-4.576v-.416c0-3.68-1.888-5.664-5.408-5.664Zm3.392,3.136h1.216c1.472,0,2.144.832,2.144,2.656v.736c0,1.888-.672,2.72-2.3,2.72H66.676Zm0,9.248h1.312c1.792,0,2.528.9,2.528,2.88v1.248c0,1.888-.736,2.752-2.368,2.752H66.676Zm22.368-9.248V7.6H79.508V30h9.536V26.864H82.9V20.208h4.96V17.072H82.9V10.736ZM98.8,7.28c-3.136,0-5.056,1.728-5.056,5.024v.544c0,2.432,1.024,4.256,4.032,7.04,2.208,2.016,2.848,3.04,2.848,4.448v.7c0,1.6-.832,2.144-1.856,2.144-1.216,0-1.92-.736-1.92-2.24V23.408l-3.264.32V25.2c0,3.3,2.112,5.12,5.248,5.12,3.1,0,5.184-1.728,5.184-5.024V24.208c0-2.592-1.024-4.416-4.032-7.2-2.208-2.016-2.848-3.04-2.848-4.288v-.48a1.589,1.589,0,0,1,1.7-1.824c1.184,0,1.76.7,1.76,2.24v.7l3.264-.32V12.4C103.86,9.1,101.94,7.28,98.8,7.28Zm14.3,0c-3.136,0-5.056,1.728-5.056,5.024v.544c0,2.432,1.024,4.256,4.032,7.04,2.208,2.016,2.848,3.04,2.848,4.448v.7c0,1.6-.832,2.144-1.856,2.144-1.216,0-1.92-.736-1.92-2.24V23.408l-3.264.32V25.2c0,3.3,2.112,5.12,5.248,5.12,3.1,0,5.184-1.728,5.184-5.024V24.208c0-2.592-1.024-4.416-4.032-7.2-2.208-2.016-2.848-3.04-2.848-4.288v-.48a1.589,1.589,0,0,1,1.7-1.824c1.184,0,1.76.7,1.76,2.24v.7l3.264-.32V12.4C118.164,9.1,116.244,7.28,113.108,7.28Zm19.808,3.456V7.6H123.38V30h9.536V26.864h-6.144V20.208h4.96V17.072h-4.96V10.736ZM146,30h3.584l-3.1-10.208c1.568-.9,2.4-2.56,2.4-4.928v-1.6c0-3.68-1.984-5.664-5.632-5.664h-4.9V30h3.392V20.528h1.568Zm-4.256-19.264h1.376c1.632,0,2.368.864,2.368,2.752V14.64c0,1.888-.736,2.752-2.368,2.752h-1.376Zm22.72,0V7.6h-9.536V30h9.536V26.864h-6.144V20.208h4.96V17.072h-4.96V10.736ZM182.9,7.28c-3.136,0-5.056,1.728-5.056,5.024v.544c0,2.432,1.024,4.256,4.032,7.04,2.208,2.016,2.848,3.04,2.848,4.448v.7c0,1.6-.832,2.144-1.856,2.144-1.216,0-1.92-.736-1.92-2.24V23.408l-3.264.32V25.2c0,3.3,2.112,5.12,5.248,5.12,3.1,0,5.184-1.728,5.184-5.024V24.208c0-2.592-1.024-4.416-4.032-7.2-2.208-2.016-2.848-3.04-2.848-4.288v-.48a1.589,1.589,0,0,1,1.7-1.824c1.184,0,1.76.7,1.76,2.24v.7l3.264-.32V12.4C187.956,9.1,186.036,7.28,182.9,7.28Zm15.52,0c-3.392,0-5.472,2.144-5.472,5.664V24.656c0,3.52,2.08,5.664,5.472,5.664s5.472-2.144,5.472-5.664V12.944C203.892,9.424,201.812,7.28,198.42,7.28Zm0,3.136c1.344,0,2.08.9,2.08,2.56V24.624c0,1.664-.736,2.56-2.08,2.56s-2.08-.9-2.08-2.56V12.976C196.34,11.312,197.076,10.416,198.42,10.416ZM220.372,7.6H216.98V24.88c0,1.632-.736,2.24-1.92,2.24s-1.92-.608-1.92-2.24V7.6h-3.264V24.976c0,3.52,2.016,5.344,5.216,5.344,3.264,0,5.28-1.824,5.28-5.344ZM237.748,30V7.6h-3.2V20.944h-.064l-4-13.344h-3.776V30h3.2V15.152h.064L234.42,30Zm6.528-22.4V30h4.864c3.648,0,5.632-1.984,5.632-5.664V13.264c0-3.68-1.984-5.664-5.632-5.664Zm3.392,3.136h1.344c1.632,0,2.368.864,2.368,2.752V24.112c0,1.888-.736,2.752-2.368,2.752h-1.344Z" transform="translate(209 107)" fill="#fcfcfc" opacity="0.52"/></g><g transform="translate(-102 -114)"><g transform="translate(147.096 157.58)"><path d="M2247.84,1184.286s-4.485,26.755,3.127,31.416,26.777,9.575,26.777,9.575v17.168s-43.739-8.36-45.556-11.508-3.695-35.892-2.907-38.153S2247.84,1184.286,2247.84,1184.286Z" transform="translate(-2229.096 -1184.213)" fill="#fcfcfc" stroke="rgba(112,112,112,0.12)" stroke-linejoin="round" stroke-width="0.2"/><path d="M2287.455,1185.251c1.98,7.779,2.7,19.444-5.523,37.829,0,0,.623,2.023,8.9,5.332s12.043,2.85,12.043,2.85c.919-3.034,2.629-15.132,3.107-22.468s.256-7.08,0-14.822C2305.9,1191.546,2287.455,1185.251,2287.455,1185.251Z" transform="translate(-2178.26 -1185.251)" fill="#fcfcfc" stroke="rgba(112,112,112,0.12)" stroke-linejoin="round" stroke-width="0.2"/><path d="M2269.285,1209.594l43.488,11.286c-6.53,25.065-19.916,46.7-43.488,60.2V1258.6c18.3-10.3,20.674-26.532,20.674-26.532l-20.674-4.941Z" transform="translate(-2189.608 -1166.884)" fill="#fcfcfc" stroke="rgba(112,112,112,0.12)" stroke-linejoin="round" stroke-width="0.2"/><path d="M2276.455,1250.349v22.8c-11.536-6.021-35.82-18.489-43.9-55.621l22.734,5.776C2254.435,1241.839,2276.455,1250.349,2276.455,1250.349Z" transform="translate(-2227.489 -1158.474)" fill="#fcfcfc" stroke="rgba(112,112,112,0.12)" stroke-linejoin="round" stroke-width="0.2"/></g></g><g transform="translate(66.1 35.167)" clip-path="url(#a)"><g transform="translate(-9.437 -11.108)" fill="#ff4848" stroke="#707070" stroke-width="1"><rect width="134" height="145.229" stroke="none"/><rect x="0.5" y="0.5" width="133" height="144.229" fill="none"/></g><g transform="translate(-9.682 -13.518)"><path d="M2451.323,1181.977l-14.915-8.308-23.16,19.244,34.187,6.962Z" transform="translate(-2385.638 -1173.406)" fill="#ff3b3b"/><path d="M2431.756,1220.984l9.666,57.681-19.541-1.782Z" transform="translate(-2376.49 -1124.199)" fill="#ff2828"/><path d="M2421.02,1233.72l24.9,7.829.4-27.921-27.471-7.757Z" transform="translate(-2379.709 -1139.918)" fill="#ff4848"/><path d="M2444.134,1230.407l-10.281-12.174-14.851-6.3.925-10.128,39.438,11.42Z" transform="translate(-2379.541 -1144.147)" fill="#ff2828"/><path d="M2440.486,1224.579l-27.743-28.981,74.826,9.972Z" transform="translate(-2386.174 -1150.601)" fill="#ff3b3b"/><path d="M2420.657,1238.063l14.263-13.33-15.448-5.979Z" transform="translate(-2379.042 -1126.519)" fill="#ff6262"/><path d="M2426.04,1276.382l6.488-38.021,2.823-15.635-.249-1.227-16.535,16.481v38.4Z" transform="translate(-2380 -1123.663)" fill="#ff4848"/><path d="M2432.158,1256.631l4.27-3.77,1.254-27.929-11.088-3.4Z" transform="translate(-2371.491 -1123.628)" fill="#ff3b3b"/><path d="M2432.622,1262.087h8.127l-7.29-25.218-4.188,3.824Z" transform="translate(-2368.654 -1107.679)" fill="#ff5353"/><path d="M2429.356,1193.634l4.27-14.762,66.962,5.077-17.081,40.926Z" transform="translate(-2368.564 -1167.995)" fill="#ff2828"/><path d="M2407.413,1204.566l21.923-11.485,22.624-19.541-52.113,2.664Z" transform="translate(-2399.846 -1173.541)" fill="#ff4848"/><path d="M2417.761,1183.119l31.682,6.022-38.612,19.118Z" transform="translate(-2388.201 -1163.579)" fill="#ff2828"/><path d="M2410.816,1205.136l38.568-19.123,56.042,32.266Z" transform="translate(-2388.218 -1160.57)" fill="#ff4848"/><path d="M2403.344,1195.466l1.066,20.031h13.572l10.4-33.547Z" transform="translate(-2396.137 -1164.794)" fill="#ff3535"/></g></g></g></svg>