<svg xmlns="http://www.w3.org/2000/svg" xmlns:xlink="http://www.w3.org/1999/xlink" width="360.726" height="128" viewBox="0 0 360.726 128">
  <defs>
    <clipPath id="clip-path">
      <path id="Path_34" data-name="Path 34" d="M2241.008,1209.342c.824.866,32.167-13.283,32.159-6.217l.609,102.427s5.408,2.615,9.951,2.615,10.971-3.189,10.971-3.189l-.411-101.854c.113-6.474,28.381,7.586,29.893,6.582s3.276-22.162-1.991-23.568a138.522,138.522,0,0,0-38.462-5.969c-20.8-.1-41.04,6.569-41.04,6.569C2240.3,1187.375,2240.184,1208.476,2241.008,1209.342Z" transform="translate(-2240.545 -1180.167)" fill="none" stroke="#707070" stroke-linejoin="round" stroke-width="0.5"/>
    </clipPath>
  </defs>
  <g id="Group_244" data-name="Group 244" transform="translate(-65.849 -1463)">
    <g id="Group_185" data-name="Group 185" transform="translate(-81.096 1313.833)">
      <g id="Group_4" data-name="Group 4" transform="translate(147.096 157.529)">
        <path id="Path_15" data-name="Path 15" d="M2247.725,1184.286s-4.458,26.591,3.108,31.224,26.613,9.517,26.613,9.517v17.063s-43.471-8.309-45.277-11.438-3.672-35.673-2.889-37.92S2247.725,1184.286,2247.725,1184.286Z" transform="translate(-2229.096 -1184.214)" fill="#ebebeb" stroke="rgba(112,112,112,0.12)" stroke-linejoin="round" stroke-width="0.2"/>
        <path id="Path_16" data-name="Path 16" d="M2287.421,1185.251c1.968,7.731,2.686,19.325-5.489,37.6,0,0,.619,2.01,8.842,5.3s11.969,2.833,11.969,2.833c.914-3.015,2.614-15.039,3.088-22.331s.255-7.037,0-14.731C2305.752,1191.507,2287.421,1185.251,2287.421,1185.251Z" transform="translate(-2178.112 -1185.251)" fill="#ebebeb" stroke="rgba(112,112,112,0.12)" stroke-linejoin="round" stroke-width="0.2"/>
        <path id="Path_17" data-name="Path 17" d="M2269.285,1209.594l43.222,11.217c-6.49,24.912-19.794,46.411-43.222,59.833V1258.3c18.188-10.233,20.548-26.369,20.548-26.369l-20.548-4.91Z" transform="translate(-2189.312 -1166.362)" fill="#ebebeb" stroke="rgba(112,112,112,0.12)" stroke-linejoin="round" stroke-width="0.2"/>
        <path id="Path_18" data-name="Path 18" d="M2276.187,1250.148v22.661c-11.465-5.984-35.6-18.376-43.63-55.281l22.595,5.74C2254.3,1241.69,2276.187,1250.148,2276.187,1250.148Z" transform="translate(-2227.52 -1158.052)" fill="#ebebeb" stroke="rgba(112,112,112,0.12)" stroke-linejoin="round" stroke-width="0.2"/>
      </g>
      <g id="Mask_Group_1" data-name="Mask Group 1" transform="translate(168.36 149.167)" clip-path="url(#clip-path)">
        <g id="Rectangle_5" data-name="Rectangle 5" transform="translate(-9.307 -11.176)" fill="#e05858" stroke="#707070" stroke-width="1">
          <rect width="133" height="145.122" stroke="none"/>
          <rect x="0.5" y="0.5" width="132" height="144.122" fill="none"/>
        </g>
        <g id="Group_5" data-name="Group 5" transform="translate(-9.622 -13.518)">
          <path id="Path_30" data-name="Path 30" d="M2451.09,1181.977l-14.824-8.308-23.018,19.245,33.977,6.962Z" transform="translate(-2385.807 -1173.406)" fill="#ff3b3b"/>
          <path id="Path_26" data-name="Path 26" d="M2431.7,1220.985l9.607,57.681-19.421-1.782Z" transform="translate(-2376.767 -1124.199)" fill="#ff2828"/>
          <path id="Path_23" data-name="Path 23" d="M2421.006,1233.72l24.743,7.829.4-27.921-27.3-7.757Z" transform="translate(-2379.948 -1139.918)" fill="#e05858"/>
          <path id="Path_22" data-name="Path 22" d="M2443.98,1230.407l-10.218-12.174-14.76-6.3.92-10.128,39.2,11.42Z" transform="translate(-2379.782 -1144.147)" fill="#ff2828"/>
          <path id="Path_21" data-name="Path 21" d="M2440.317,1224.579l-27.573-28.981,74.368,9.972Z" transform="translate(-2386.337 -1150.601)" fill="#ff3b3b"/>
          <path id="Path_24" data-name="Path 24" d="M2420.65,1238.063l14.176-13.33-15.354-5.979Z" transform="translate(-2379.289 -1126.519)" fill="#ff6262"/>
          <path id="Path_25" data-name="Path 25" d="M2425.994,1276.382l6.448-38.021,2.806-15.635L2435,1221.5l-16.434,16.481v38.4Z" transform="translate(-2380.236 -1123.663)" fill="#e05858"/>
          <path id="Path_27" data-name="Path 27" d="M2432.124,1256.631l4.243-3.77,1.247-27.929-11.02-3.4Z" transform="translate(-2371.828 -1123.628)" fill="#ff3b3b"/>
          <path id="Path_28" data-name="Path 28" d="M2432.6,1262.087h8.077l-7.245-25.217-4.163,3.824Z" transform="translate(-2369.025 -1107.679)" fill="#ff5353"/>
          <path id="Path_29" data-name="Path 29" d="M2429.356,1193.634l4.244-14.762,66.552,5.077-16.977,40.926Z" transform="translate(-2368.936 -1167.995)" fill="#ff2828"/>
          <path id="Path_31" data-name="Path 31" d="M2407.366,1204.566l21.789-11.485,22.486-19.541-51.794,2.664Z" transform="translate(-2399.846 -1173.541)" fill="#e05858"/>
          <path id="Path_33" data-name="Path 33" d="M2417.718,1183.119l31.488,6.022-38.376,19.118Z" transform="translate(-2388.34 -1163.579)" fill="#ff2828"/>
          <path id="Path_20" data-name="Path 20" d="M2410.816,1205.136l38.332-19.123,55.7,32.266Z" transform="translate(-2388.356 -1160.57)" fill="#e05858"/>
          <path id="Path_32" data-name="Path 32" d="M2403.344,1195.466l1.06,20.031h13.489l10.332-33.547Z" transform="translate(-2396.181 -1164.794)" fill="#ff3535"/>
        </g>
      </g>
    </g>
    <g id="Group_186" data-name="Group 186" transform="translate(-3 -10)">
      <path id="Path_54" data-name="Path 54" d="M32.175-35.1c0,3.6-2.025,5.55-6,5.55H18.9V-40.575h7.275C30.15-40.575,32.175-38.4,32.175-35.1ZM4.2-52.875V0H18.9V-19.5h1.575L30.975,0H47.4L35.475-20.625c7.875-2.4,11.625-8.4,11.625-15.3,0-9.45-6.6-16.95-19.725-16.95Zm47.175,31.8c0,13.425,7.95,21.6,17.925,21.6C75.225.525,79.5-2.1,81.675-5.85V0h14.7V-42.075h-14.7v5.85C79.5-39.975,75.3-42.6,69.3-42.6,59.325-42.6,51.375-34.5,51.375-21.075Zm30.3,0c0,5.7-3.525,8.775-7.65,8.775-4.2,0-7.65-3.15-7.65-8.775,0-5.7,3.45-8.7,7.65-8.7C78.15-29.775,81.675-26.7,81.675-21.075Zm20.7,0c0,13.425,7.95,21.6,17.925,21.6,5.925,0,10.125-2.625,12.3-6.375V0h14.775V-55.5H132.6v19.2c-2.325-3.825-6.675-6.3-12.225-6.3C110.325-42.6,102.375-34.5,102.375-21.075Zm30.3,0c0,5.7-3.525,8.775-7.65,8.775-4.2,0-7.65-3.15-7.65-8.775,0-5.7,3.45-8.7,7.65-8.7C129.15-29.775,132.675-26.7,132.675-21.075ZM155.775,0h14.7V-42.075h-14.7ZM163.2-45.975c5.175,0,8.55-3.3,8.55-7.5,0-4.275-3.375-7.65-8.55-7.65-5.25,0-8.625,3.375-8.625,7.65C154.575-49.275,157.95-45.975,163.2-45.975Zm57.375,24.9c0-13.35-9.525-21.525-22.05-21.525s-22.05,8.175-22.05,21.525c0,13.425,9.45,21.6,21.975,21.6S220.575-7.65,220.575-21.075Zm-29.1,0c0-6,3.3-8.775,7.05-8.775s7.125,2.775,7.125,8.775c0,6.075-3.45,8.85-7.2,8.85C194.625-12.225,191.475-15,191.475-21.075Z" transform="translate(209 1581)" fill="#ebebeb"/>
      <path id="Path_53" data-name="Path 53" d="M.928-16.965H6.322V0h4.06V-16.965h5.394v-3.277H.928ZM32.886-5.858c0-7.134-10.382-4.872-10.382-8.932,0-1.653,1.189-2.436,2.784-2.378a2.672,2.672,0,0,1,2.9,2.407h4.466c-.261-3.654-3.1-5.771-7.25-5.771-4.176,0-7.134,2.2-7.134,5.858-.029,7.337,10.411,4.7,10.411,9.077,0,1.45-1.131,2.465-3.045,2.465a2.779,2.779,0,0,1-3.074-2.7h-4.35C18.27-2,21.518.2,25.723.2,30.334.2,32.886-2.668,32.886-5.858ZM50.141,0h4.292L47.154-20.271H42.427L35.148,0h4.263l1.334-3.857h8.062ZM47.7-7.105H41.847l2.929-8.468Zm9.454-13.137V0h10.73V-3.219h-6.67V-20.242Zm13.311,0V0H81.2V-3.219H74.53V-20.242ZM83.781,0h4.06V-20.242h-4.06Zm21.808,0h4.292L102.6-20.271H97.875L90.6,0h4.263l1.334-3.857h8.062Zm-2.436-7.105H97.295l2.929-8.468ZM125.86-20.271v13.92l-9.193-13.92h-4.06V0h4.06V-13.891L125.86,0h4.06V-20.271Zm7.076,10.121A9.981,9.981,0,0,0,143.2.174c4.495,0,8.149-2.378,9.512-6.554h-4.669a5.082,5.082,0,0,1-4.872,2.929c-3.538,0-6.061-2.61-6.061-6.7,0-4.118,2.523-6.7,6.061-6.7a5.1,5.1,0,0,1,4.872,2.9h4.669C151.351-18.1,147.7-20.5,143.2-20.5A10,10,0,0,0,132.936-10.15Zm35-10.121H156.194V0h11.745V-3.306h-7.685V-8.671h6.815V-11.89h-6.815v-5.075h7.685Z" transform="translate(209 1512)" fill="#e05858"/>
    </g>
  </g>
</svg>
